<?xml version="1.0" encoding="UTF-8" standalone="no"?>
<!-- Created with Inkscape (http://www.inkscape.org/) -->

<svg
   id="svg2"
   version="1.1"
   inkscape:version="1.4 (e7c3feb100, 2024-10-09)"
   width="1000"
   height="1000"
   viewBox="0 0 1000 1000"
   sodipodi:docname="FMBQ-logo.svg"
   inkscape:export-xdpi="600.03003"
   inkscape:export-ydpi="600.03003"
   xmlns:inkscape="http://www.inkscape.org/namespaces/inkscape"
   xmlns:sodipodi="http://sodipodi.sourceforge.net/DTD/sodipodi-0.dtd"
   xmlns="http://www.w3.org/2000/svg"
   xmlns:svg="http://www.w3.org/2000/svg"
   xmlns:rdf="http://www.w3.org/1999/02/22-rdf-syntax-ns#"
   xmlns:cc="http://creativecommons.org/ns#"
   xmlns:dc="http://purl.org/dc/elements/1.1/">
  <metadata
     id="metadata8">
    <rdf:RDF>
      <cc:Work
         rdf:about="">
        <dc:format>image/svg+xml</dc:format>
        <dc:type
           rdf:resource="http://purl.org/dc/dcmitype/StillImage" />
      </cc:Work>
    </rdf:RDF>
  </metadata>
  <defs
     id="defs6" />
  <sodipodi:namedview
     pagecolor="#ffffff"
     bordercolor="#666666"
     borderopacity="1"
     objecttolerance="10"
     gridtolerance="10"
     guidetolerance="10"
     inkscape:pageopacity="0"
     inkscape:pageshadow="2"
     inkscape:window-width="2048"
     inkscape:window-height="1208"
     id="namedview4"
     showgrid="false"
     inkscape:snap-bbox="true"
     inkscape:bbox-paths="true"
     inkscape:bbox-nodes="true"
     inkscape:object-paths="true"
     inkscape:object-nodes="true"
     inkscape:zoom="0.61889637"
     inkscape:cx="286.80084"
     inkscape:cy="585.72003"
     inkscape:window-x="0"
     inkscape:window-y="0"
     inkscape:window-maximized="1"
     inkscape:current-layer="svg2"
     borderlayer="true"
     fit-margin-top="0"
     fit-margin-left="0"
     fit-margin-right="0"
     fit-margin-bottom="0"
     inkscape:snap-global="false"
     showguides="true"
     inkscape:guide-bbox="true"
     inkscape:showpageshadow="0"
     inkscape:pagecheckerboard="0"
     inkscape:deskcolor="#505050">
    <inkscape:grid
       type="xygrid"
       id="grid32339"
       originx="0"
       originy="-6.4123474e-05"
       spacingy="1"
       spacingx="1"
       units="px" />
  </sodipodi:namedview>
  <path
     style="color:#000000;font-style:normal;font-variant:normal;font-weight:normal;font-stretch:normal;font-size:medium;line-height:normal;font-family:sans-serif;text-indent:0;text-align:start;text-decoration:none;text-decoration-line:none;text-decoration-style:solid;text-decoration-color:#000000;letter-spacing:normal;word-spacing:normal;text-transform:none;direction:ltr;block-progression:tb;writing-mode:lr-tb;baseline-shift:baseline;text-anchor:start;white-space:normal;clip-rule:nonzero;display:inline;overflow:visible;visibility:visible;opacity:1;isolation:auto;mix-blend-mode:normal;color-interpolation:sRGB;color-interpolation-filters:linearRGB;solid-color:#000000;solid-opacity:1;fill:#2e1a4e;fill-opacity:1;fill-rule:nonzero;stroke:none;stroke-width:24.56151962;stroke-linecap:butt;stroke-linejoin:miter;stroke-miterlimit:4;stroke-dasharray:none;stroke-dashoffset:0;stroke-opacity:1;color-rendering:auto;image-rendering:auto;shape-rendering:auto;text-rendering:auto;enable-background:accumulate"
     d="m 497.47387,177.64257 -7.90625,6.7754 c 0,0 -23.47657,20.10502 -46.875,50.21484 -17.32886,22.29932 -35.17244,50.29583 -43.26953,81.01953 -6.34057,-12.09745 -13.66227,-23.15252 -20.87695,-32.86523 -19.29142,-25.97092 -38.72657,-42.86719 -38.72656,-42.86719 l -7.99805,-6.96094 -8.05274,6.89649 c 0,0 -78.15234,64.11345 -78.15234,143.92187 l 0,276.16406 a 577.79999,89.099998 0 0 1 24.5625,-1.69531 l 0,-274.46875 c 0,-51.42278 44.72311,-100.56334 61.66016,-117.45898 6.66535,6.53389 15.90845,16.19647 26.99023,31.11523 17.63874,23.74602 34.50781,55.48397 34.50781,86.34375 l 0,268.60547 a 577.79999,89.099998 0 0 1 26.16211,-0.61719 l 0,-302.95508 c 0,-34.04722 20.81465,-71.08894 42.58789,-99.10742 14.03265,-18.05764 27.40343,-31.51394 35.58399,-39.29492 8.5346,7.88975 22.69531,21.70575 37.52344,40.10156 22.78386,28.26573 44.47656,65.42317 44.47656,98.30078 l 0,302.96485 a 577.79999,89.099998 0 0 1 26.16211,0.60937 l 0,-268.60742 c 0,-30.85977 16.86901,-62.59773 34.50781,-86.34375 11.08182,-14.91876 20.32485,-24.58134 26.99023,-31.11523 16.93699,16.89564 61.66016,66.03618 61.66016,117.45898 l 0,274.39258 A 577.79999,89.099998 0 0 1 753.55395,660 l 0,-276.22266 c 0,-79.80839 -78.15234,-143.92187 -78.15234,-143.92187 l -8.05274,-6.89649 -7.99805,6.96094 c 0,0 -19.43507,16.89627 -38.72656,42.86719 -7.28937,9.81322 -14.68673,20.99775 -21.07226,33.24218 -8.46716,-30.50756 -27.14483,-58.49166 -45.23438,-80.93359 -24.41171,-30.28523 -48.86719,-50.76367 -48.86719,-50.76367 l -7.97656,-6.68946 z"
     id="path34555"
     inkscape:connector-curvature="0" />
  <path
     style="opacity:1;fill:#4c40a1;fill-opacity:1;stroke:none;stroke-width:2;stroke-linecap:butt;stroke-linejoin:miter;stroke-miterlimit:4;stroke-dasharray:none;stroke-dashoffset:0;stroke-opacity:1"
     d="m 331.75708,249.18359 c 0,0 -73.85938,63.26286 -73.85938,134.59375 l 0,275.31641 a 577.79999,89.099998 0 0 1 147.7207,-7.06836 l 0,-268.24805 c 0,-70.31903 -73.86132,-134.59375 -73.86132,-134.59375 z"
     id="path34007"
     inkscape:connector-curvature="0" />
  <path
     style="opacity:1;fill:#2e1a4e;fill-opacity:1;stroke:none;stroke-width:2;stroke-linecap:butt;stroke-linejoin:round;stroke-miterlimit:4;stroke-dasharray:none;stroke-dashoffset:0;stroke-opacity:1"
     d="m 331.75903,302.83789 c -0.10149,0.11188 -36.92188,40.51597 -36.92188,80.93945 l 0,272.84961 a 577.79999,89.099998 0 0 1 36.92188,-1.89258 l 0,-351.89648 z"
     id="path34023"
     inkscape:connector-curvature="0" />
  <path
     style="opacity:1;fill:#034c24;fill-opacity:1;stroke:none;stroke-width:2;stroke-linecap:butt;stroke-linejoin:round;stroke-miterlimit:4;stroke-dasharray:none;stroke-dashoffset:0;stroke-opacity:1"
     d="m 333.29223,302.83789 0,351.81836 a 577.79999,89.099998 0 0 1 36.92188,-1.47266 l 0,-269.40625 c 0,-40.42348 -36.82038,-80.82757 -36.92188,-80.93945 z"
     id="path34025"
     inkscape:connector-curvature="0" />
  <path
     style="opacity:1;fill:#4c40a1;fill-opacity:1;stroke:none;stroke-width:5.32785368;stroke-linecap:butt;stroke-linejoin:miter;stroke-miterlimit:4;stroke-dasharray:none;stroke-dashoffset:0;stroke-opacity:1"
     d="m 497.56176,193.74218 c 0,0 -90.34375,77.44512 -90.34375,155.06836 l 0,303.18555 a 577.79999,89.099998 0 0 1 92.36719,-1.1875 577.79999,89.099998 0 0 1 92.36719,1.25391 l 0,-303.25196 c 0,-75.93262 -94.39063,-155.06836 -94.39063,-155.06836 z"
     id="path34003"
     inkscape:connector-curvature="0" />
  <path
     style="opacity:1;fill:#f2da30;fill-opacity:1;stroke:none;stroke-width:5.32785368;stroke-linecap:butt;stroke-linejoin:miter;stroke-miterlimit:4;stroke-dasharray:none;stroke-dashoffset:0;stroke-opacity:1"
     d="m 498.28247,237.25781 c 0,0 -60.70508,64.27485 -60.70508,111.31836 l 0,302.85156 a 577.79999,89.099998 0 0 1 62.00781,-0.61914 577.79999,89.099998 0 0 1 59.40234,0.48438 l 0,-302.7168 c 0,-47.04351 -60.70507,-111.31836 -60.70507,-111.31836 z"
     id="path34009"
     inkscape:connector-curvature="0" />
  <path
     style="opacity:1;fill:#4c40a1;fill-opacity:1;stroke:none;stroke-width:2;stroke-linecap:butt;stroke-linejoin:miter;stroke-miterlimit:4;stroke-dasharray:none;stroke-dashoffset:0;stroke-opacity:1"
     d="m 667.41332,249.18359 c 0,0 -73.86132,64.27472 -73.86132,134.59375 l 0,268.32227 a 577.79999,89.099998 0 0 1 147.7207,6.98437 l 0,-275.30664 c 0,-71.33089 -73.85937,-134.59375 -73.85938,-134.59375 z"
     id="path34005"
     inkscape:connector-curvature="0" />
  <path
     style="opacity:1;fill:#2e1a4e;fill-opacity:1;stroke:none;stroke-width:2;stroke-linecap:butt;stroke-linejoin:round;stroke-miterlimit:4;stroke-dasharray:none;stroke-dashoffset:0;stroke-opacity:1"
     d="m 667.41137,302.83789 0,351.83593 a 577.79999,89.099998 0 0 1 36.92188,2.02735 l 0,-272.92383 c 0,-40.42348 -36.82039,-80.82757 -36.92188,-80.93945 z"
     id="path34017"
     inkscape:connector-curvature="0" />
  <path
     sodipodi:nodetypes="cccccc"
     inkscape:connector-curvature="0"
     id="path34027"
     d="m 331.77594,302.81803 c 0,0 -34.252,37.55012 -36.77916,76.48368 14.98427,13.07362 30.20317,22.64412 37.42939,51.23335 7.91211,-21.40025 17.66525,-37.92358 36.26129,-48.64002 -1.10947,-39.84267 -36.91155,-79.07701 -36.91155,-79.07701 z"
     style="fill:#ed2c2d;fill-opacity:1;fill-rule:evenodd;stroke:none;stroke-width:2;stroke-linecap:round;stroke-linejoin:round;stroke-miterlimit:4;stroke-dasharray:none;stroke-opacity:1" />
  <path
     style="opacity:1;fill:#034c22;fill-opacity:1;stroke:none;stroke-width:2;stroke-linecap:butt;stroke-linejoin:round;stroke-miterlimit:4;stroke-dasharray:none;stroke-dashoffset:0;stroke-opacity:1"
     d="m 665.87817,302.83789 c -0.10149,0.11188 -36.92188,40.51597 -36.92188,80.93945 l 0,269.38086 a 577.79999,89.099998 0 0 1 36.92188,1.45508 l 0,-351.77539 z"
     id="path34019"
     inkscape:connector-curvature="0" />
  <path
     style="fill:#ed2c2d;fill-opacity:1;fill-rule:evenodd;stroke:none;stroke-width:2;stroke-linecap:round;stroke-linejoin:round;stroke-miterlimit:4;stroke-dasharray:none;stroke-opacity:1"
     d="m 667.39446,302.81803 c 0,0 34.25204,37.55012 36.7792,76.48368 -14.98426,13.07362 -30.2032,22.64412 -37.42944,51.23335 -7.9121,-21.40025 -17.66519,-37.92358 -36.26129,-48.64002 1.1095,-39.84267 36.91153,-79.07701 36.91153,-79.07701 z"
     id="path34021"
     inkscape:connector-curvature="0"
     sodipodi:nodetypes="ccccc" />
  <path
     style="opacity:1;fill:#ed2c2d;fill-opacity:1;stroke:none;stroke-width:5.32785368;stroke-linecap:butt;stroke-linejoin:miter;stroke-miterlimit:4;stroke-dasharray:none;stroke-dashoffset:0;stroke-opacity:1"
     d="m 498.2824,237.25789 c 0,0 -27.9643,29.62671 -45.9325,63.36938 l 0.112,0.54018 c 0,0 16.67936,17.96402 16.67936,69.72605 l 0,3.90761 58.14819,0 0,-3.90761 c 0,-29.06959 2.88264,-49.48102 16.24676,-71.52354 -17.98471,-33.2169 -45.25239,-62.11207 -45.25239,-62.11207 z m -5.4e-4,0 -0.99764,-40.47916"
     id="path34011"
     inkscape:connector-curvature="0"
     sodipodi:nodetypes="cccsccsccccc" />
  <path
     style="opacity:1;fill:#2e1a4e;fill-opacity:1;stroke:none;stroke-width:5.32785368;stroke-linecap:butt;stroke-linejoin:miter;stroke-miterlimit:4;stroke-dasharray:none;stroke-dashoffset:0;stroke-opacity:1"
     d="m 498.29614,277.73632 c 0,0 -30.35938,30.36036 -30.35938,70.83985 l 0,302.4043 a 577.79999,89.099998 0 0 1 31.64844,-0.17188 577.79999,89.099998 0 0 1 29.07031,0.22461 l 0,-302.45703 c 0,-40.47949 -30.35937,-70.83985 -30.35937,-70.83985 z"
     id="path34013"
     inkscape:connector-curvature="0" />
  <path
     style="color:#000000;font-style:normal;font-variant:normal;font-weight:normal;font-stretch:normal;font-size:medium;line-height:normal;font-family:sans-serif;text-indent:0;text-align:start;text-decoration:none;text-decoration-line:none;text-decoration-style:solid;text-decoration-color:#000000;letter-spacing:normal;word-spacing:normal;text-transform:none;direction:ltr;block-progression:tb;writing-mode:lr-tb;baseline-shift:baseline;text-anchor:start;white-space:normal;clip-rule:nonzero;display:inline;overflow:visible;visibility:visible;opacity:1;isolation:auto;mix-blend-mode:normal;color-interpolation:sRGB;color-interpolation-filters:linearRGB;solid-color:#000000;solid-opacity:1;fill:#9d8b7f;fill-opacity:1;fill-rule:nonzero;stroke:none;stroke-width:2;stroke-linecap:butt;stroke-linejoin:round;stroke-miterlimit:4;stroke-dasharray:none;stroke-dashoffset:0;stroke-opacity:1;color-rendering:auto;image-rendering:auto;shape-rendering:auto;text-rendering:auto;enable-background:accumulate"
     d="m 497.54223,190.25 -1.71484,1.4707 c 0,0 -22.77892,19.52152 -45.54102,48.8125 -22.76218,29.29098 -45.73242,68.43223 -45.73242,108.27734 l 0,6.39844 c -6.39662,-25.21092 -20.10126,-48.34455 -33.72656,-66.6875 -17.97082,-24.19302 -35.80293,-40.00859 -37.08008,-41.13086 -0.14704,-0.16669 -0.31435,-0.31432 -0.49805,-0.43945 l -1.47656,-1.28516 -1.50195,1.2832 c -0.17596,0.1178 -0.33726,0.25613 -0.48047,0.41211 -2.5151,2.15548 -74.5586,64.5224 -74.5586,136.41797 l 0,275.49805 c 1.77202,-0.12378 3.54809,-0.24618 5.32813,-0.36719 l 0,-275.13086 c 0,-0.0978 0.004,-0.19521 0.004,-0.29297 l 31.61328,0 c -4.1e-4,0.0976 -0.004,0.19532 -0.004,0.29297 l 0,272.98438 c 1.77316,-0.0925 3.54922,-0.18362 5.32813,-0.27344 l 0,-271.57617 c 13.02708,10.97337 25.02872,20.34355 31.59179,43.49219 l 0,226.46484 c 2.28298,-0.11939 4.57079,-0.23658 6.86328,-0.35156 l 0,-225.76367 c 7.24281,-18.79858 16.03338,-33.14659 31.5918,-43.00391 l 0,267.52344 c 1.77416,-0.0625 3.55022,-0.12369 5.32813,-0.1836 l 0,-268.66211 30.07812,0 0,267.64649 c 2.30752,-0.0458 4.61681,-0.0894 6.92774,-0.13086 l 0,-303.13477 c 0,-37.77813 22.20174,-76.17049 44.61132,-105.00781 16.9603,-21.82501 33.15903,-37.43336 40.20313,-43.89258 l 0.89648,36.3418 c -0.4932,0.52908 -1.36304,1.4771 -3.21484,3.56641 -5.1325,5.75071 -15.61512,17.99857 -26.44922,33.66796 -0.064,0.0924 -0.12731,0.18081 -0.19141,0.27344 -0.053,0.0763 -0.1054,0.15602 -0.1582,0.23242 -0.7508,1.09046 -1.49805,2.18685 -2.24805,3.30664 -0.8117,1.20688 -1.61988,2.43202 -2.42578,3.66797 -0.1484,0.22884 -0.29721,0.44984 -0.44531,0.67969 -13.39702,20.67155 -25.54685,45.10736 -25.54688,66.92969 l 0,302.90039 c 1.77373,-0.0345 3.54849,-0.0677 5.32422,-0.0996 l 0,-302.80078 c 0,-13.15156 5.14037,-28.11851 12.41993,-42.64649 l 0.004,0 c 1.4655,2.28863 3.50719,6.00315 5.65039,11.63672 2.7122,7.1298 5.4514,17.18019 6.9668,30.73047 -4e-4,0.0938 -0.01,0.18541 -0.01,0.2793 l 0,302.41992 c 1.77965,-0.011 3.55962,-0.0208 5.33985,-0.0293 l 0.10742,-290.02734 -0.10352,-12.90039 c 0.2322,-34.89007 22.8484,-61.03601 27.6836,-66.27149 4.6713,5.0578 25.93403,29.63307 27.58203,62.75196 l -0.0469,5.23633 0.16016,0 0,27.70898 0,31.01953 0,242.52734 c 1.77644,0.0124 3.55251,0.0261 5.32813,0.041 l 0,-302.47656 c 0,-1.41482 -0.0429,-2.81404 -0.11133,-4.20313 1.6347,-14.30522 5.1583,-26.67367 12.1914,-39.4414 7.5463,14.83889 12.92383,30.19161 12.92383,43.64453 l 0,302.66992 c 1.77648,0.0352 3.55189,0.0716 5.32617,0.10938 l 0,-302.7793 c 0,-22.09962 -12.46089,-46.87485 -26.05859,-67.71094 -0.2256,-0.34742 -0.4516,-0.68621 -0.67774,-1.03125 -0.72978,-1.10843 -1.45985,-2.20494 -2.19335,-3.28906 -0.5884,-0.87285 -1.17498,-1.7371 -1.76368,-2.5918 -0.044,-0.0634 -0.087,-0.13002 -0.13086,-0.19336 -0.1329,-0.19219 -0.26553,-0.37511 -0.39843,-0.5664 -11.4182,-16.47559 -22.52421,-29.2721 -27.22071,-34.48438 -0.099,-0.11009 -0.26412,-0.29914 -0.35742,-0.40234 -0.029,-0.0324 -0.0159,-0.0189 -0.0449,-0.0508 -0.4357,-0.4814 -0.58306,-0.63709 -0.88086,-0.96094 -0.434,-0.47421 -0.81365,-0.89384 -1.00195,-1.09571 l -0.90808,-36.76559 c 7.0259,6.24588 24.47513,22.46852 42.66993,45.04102 23.4212,29.05644 46.6055,67.47346 46.60546,104.33593 l 0,303.18946 c 2.31263,0.0512 4.62322,0.10461 6.93165,0.16015 l 0,-267.73047 30.07226,0 0,268.62305 c 1.7782,0.069 3.55427,0.13932 5.32813,0.21094 l 0,-267.51563 c 15.5618,9.85743 24.35405,24.20705 31.59765,43.00782 l 0,225.75195 c 2.28938,0.0883 4.57523,0.17883 6.85742,0.27148 l 0,-226.3789 c 6.5646,-23.14826 18.56906,-32.51928 31.59766,-43.49414 l 0,271.64648 c 1.7779,0.0983 3.55266,0.19788 5.32422,0.29883 l 0,-273.07227 0,-0.29297 31.60742,0 c 3e-4,0.0978 0,0.19519 0,0.29297 l 0,275.10742 c 1.78172,0.13076 3.55909,0.26292 5.33203,0.39649 l 0,-275.50391 c 0,-71.82764 -71.90267,-134.13891 -74.54687,-136.40625 -0.15114,-0.16826 -0.32311,-0.31658 -0.51172,-0.4414 l -1.47656,-1.26563 -1.5,1.30274 c -0.16938,0.11646 -0.3247,0.25212 -0.46289,0.40429 -1.1847,1.04021 -19.07546,16.88619 -37.09766,41.14844 -13.6268,18.34484 -27.33031,41.48136 -33.72461,66.69531 l 0,-6.40625 c 0,-39.07014 -24.01086,-78.18517 -47.78516,-107.67968 -23.7743,-29.49452 -47.55859,-49.42969 -47.55859,-49.42969 z m 0.74024,51.03906 c 0.6592,0.71203 1.90438,2.06743 3.61328,4.00391 0.257,0.29114 0.59369,0.68468 0.87109,1.00195 0.633,0.72786 1.16597,1.32629 1.88867,2.17383 1.4316,1.6788 3.03932,3.6019 4.76172,5.71093 0.2092,0.25578 0.43123,0.53061 0.64453,0.79297 1.298,1.59865 2.66493,3.31685 4.07813,5.12305 0.5012,0.64089 0.99642,1.2748 1.51172,1.94336 0.6405,0.83041 1.29314,1.68609 1.94921,2.55273 0.9652,1.27601 1.94832,2.59696 2.94922,3.95899 6.6233,9.01173 13.7164,19.57217 19.92578,30.85547 -5.5542,9.44842 -9.25368,18.69234 -11.67578,28.42968 -7.3981,-30.89171 -28.62129,-51.98242 -28.62109,-51.98242 l -1.88281,-1.88476 -1.88282,1.88476 c 0,0 -21.92641,21.77595 -28.97851,53.49024 -1.2692,-5.33132 -2.69918,-9.87786 -4.14258,-13.67188 -3.5588,-9.35522 -6.72847,-13.5162 -7.91015,-14.97266 0.02,-0.0369 0.0386,-0.0744 0.0586,-0.11132 4.9362,-9.10878 10.48579,-17.79011 15.93359,-25.58594 0.022,-0.0312 0.0435,-0.0626 0.0645,-0.0937 1.0254,-1.46622 2.04734,-2.89666 3.06054,-4.29688 0.084,-0.11569 0.16846,-0.23642 0.25196,-0.35156 0.3658,-0.5042 0.72263,-0.9777 1.08593,-1.47265 1.0565,-1.44026 2.0902,-2.82697 3.10743,-4.17188 0.59219,-0.78208 1.18787,-1.56764 1.76757,-2.32031 0.5974,-0.77666 1.16935,-1.50438 1.74805,-2.24414 1.3346,-1.7044 2.62903,-3.33601 3.86133,-4.85547 0.2037,-0.25094 0.41133,-0.50889 0.61133,-0.75391 3.1181,-3.82371 5.7329,-6.86622 7.8125,-9.23437 1.654,-1.87165 2.89191,-3.22112 3.53711,-3.91797 z m -169.18946,14.01953 0,46.53516 c -0.29334,0.33192 -0.3711,0.40931 -0.97851,1.12304 -0.15627,0.18362 -0.38521,0.46359 -0.56055,0.67188 -4.60092,5.3334 -19.02462,23.06846 -28.00781,45.70508 -0.0518,0.12853 -0.10485,0.25594 -0.15625,0.38476 -0.19642,0.49972 -0.38551,1.00372 -0.57617,1.50781 -3.27597,8.52788 -5.70113,17.6346 -6.41797,26.92383 l -31.67578,0 c 3.20689,-58.92277 55.486,-110.88315 68.37304,-122.85156 z m 340.98242,0.002 0.004,0 c 12.892,11.9735 65.16244,63.93122 68.36914,122.84961 l -31.66992,0 c -0.7112,-9.21067 -3.10494,-18.24146 -6.33984,-26.70703 -0.2355,-0.62615 -0.47045,-1.25166 -0.71485,-1.87109 0,-0.01 -0.01,-0.0195 -0.0117,-0.0293 -8.8875,-22.50966 -23.22438,-40.24373 -27.99218,-45.79102 -0.2112,-0.25139 -0.47751,-0.57791 -0.66211,-0.79492 -0.6106,-0.71743 -0.68973,-0.79782 -0.98243,-1.1289 z m -5.32617,0.0137 0.004,0 -0.01,45.10157 c -0.31957,0.14915 -0.6064,0.36026 -0.84375,0.62109 0.1102,-0.12174 -0.63172,0.70006 -1.66992,1.91992 -1.0381,1.2199 -2.50722,2.98833 -4.26562,5.23828 -3.5167,4.49988 -8.18423,10.90532 -12.86133,18.60157 -8.659,14.24839 -17.40345,32.92427 -18.65625,52.29492 l -30.10742,0 c 1.5419,-32.56355 18.82379,-63.90639 36.27539,-87.40039 13.8414,-18.63393 26.57966,-31.1916 32.13476,-36.37696 z m -330.32812,0.004 c 5.55814,5.18868 18.29222,17.74555 32.1289,36.37305 17.45156,23.49402 34.73898,54.83682 36.28125,87.40039 l -30.11328,0 c -1.25215,-19.37065 -9.99145,-38.04653 -18.65039,-52.29492 -4.67711,-7.69625 -9.35046,-14.10169 -12.86719,-18.60157 -1.75835,-2.24995 -3.22746,-4.01838 -4.26562,-5.23828 -1.03816,-1.21986 -1.78029,-2.04155 -1.66992,-1.91992 -0.23737,-0.26084 -0.52416,-0.47195 -0.84375,-0.62109 z m -2.66211,50.57031 c 16.00079,19.84841 31.55933,44.52203 35.49878,73.74633 -2.95578,1.94885 -4.83623,3.4192 -7.13955,5.1055 -10.71477,8.10409 -18.2137,18.59612 -24.16201,30.99778 l 0,-0.85742 c -1.48138,3.14087 -2.67412,6.12325 -3.52734,8.75977 -0.9397,-3.37784 -2.01489,-6.62842 -3.33594,-9.82227 l 0,0.80859 c -7.34746,-15.85267 -17.79281,-24.89136 -28.24215,-33.82829 -1.04788,-0.77577 -2.09668,-1.55184 -3.21874,-2.34375 0.15638,-0.98545 0.32613,-1.96208 0.5039,-2.93555 2.20674,-18.40945 11.07569,-36.04262 19.27344,-48.94922 4.36543,-7.16505 9.20947,-14.02994 14.34961,-20.68164 z m 335.30859,0 c 2.44046,3.15813 4.8022,6.37136 7.08985,9.63477 1.10454,1.48944 2.2715,3.09797 3.50976,4.88281 0.7594,1.09763 1.52459,2.21466 2.30859,3.40235 0.7496,1.13404 1.50679,2.30159 2.27149,3.51953 0.1391,0.22148 0.27867,0.44996 0.41797,0.67382 0.8526,1.37147 1.7092,2.77669 2.5625,4.24219 0,0.003 -4.8e-4,0.006 0.01,0.01 0.2583,0.44364 0.51419,0.90178 0.77149,1.35351 0.2414,0.42313 0.48471,0.84402 0.72461,1.27344 0.3362,0.60277 0.66895,1.21621 1.00195,1.83203 0.1376,0.25407 0.27521,0.50764 0.41211,0.76367 0.3827,0.71734 0.76424,1.44213 1.14062,2.17579 0.06,0.1163 0.12009,0.23294 0.17969,0.3496 5.8035,11.38457 10.72677,24.65228 11.85547,38.22657 -0.0487,0.0419 -0.0978,0.0831 -0.14648,0.125 0.005,0.0341 0.0122,0.0675 0.0176,0.10156 -0.43853,0.32584 -0.83785,0.64498 -1.26563,0.96875 -10.97702,9.40296 -22.12547,18.53711 -29.84961,35.20312 l 0,-0.55273 c -1.39523,3.20281 -2.52995,6.44958 -3.45898,9.78906 -0.82599,-2.55236 -1.97387,-5.43358 -3.40235,-8.47656 l 0,0.36328 c -6.21016,-12.95147 -14.10934,-23.82111 -25.59605,-32.06361 -2.03733,-1.51388 -3.62477,-2.86304 -6.03572,-4.11356 3.93945,-29.22429 19.48059,-53.83575 35.48138,-73.68416 z"
     id="path34274"
     inkscape:connector-curvature="0"
     sodipodi:nodetypes="ccsscscccccsccsccsccccccccccccccsscccccccccsccsccccsccccccccccccsccsccsccccccccccccsscccccccccccccccccsccscccccscsscccccccccccccccccccccccccccccccccccscccccccccccccccccccscccssccsccsccssccccccccccccccccccccccccccccccccccccccccccccccc" />
  <path
     style="opacity:1;fill:#332163;fill-opacity:1;stroke:none;stroke-width:8;stroke-linecap:butt;stroke-linejoin:miter;stroke-miterlimit:4;stroke-dasharray:none;stroke-dashoffset:0;stroke-opacity:1"
     d=""
     id="path33723"
     inkscape:connector-curvature="0" />
  <g
     id="g34611"
     transform="matrix(-0.20584677,0.00446809,0.01403811,0.20605428,589.77884,1108.8347)"
     style="fill:#917c6f;fill-opacity:1" />
  <g
     id="g34684"
     transform="translate(786.37599,-306.17213)" />
  <g
     id="g34727"
     style="fill:#291a50;fill-opacity:1"
     transform="translate(0.6759878,20.60608)" />
  <g
     transform="translate(791.19448,-673.66694)"
     id="g34571" />
  <g
     style="font-style:normal;font-variant:normal;font-weight:600;font-stretch:normal;font-size:61.40379715px;line-height:100%;font-family:'Encode Sans Compressed';-inkscape-font-specification:'Encode Sans Compressed Semi-Bold';text-align:center;letter-spacing:4.91230392px;word-spacing:0px;writing-mode:lr-tb;text-anchor:middle;fill:#332163;fill-opacity:1;stroke:none;stroke-width:1px;stroke-linecap:butt;stroke-linejoin:miter;stroke-opacity:1"
     id="text34061"
     transform="translate(0,0.66016)">
    <path
       d="m 5.000012,872.40976 24.622923,0 0,6.07898 -17.438679,0 0,14.06147 15.964988,0 0,6.07897 -15.964988,0 0,19.21939 -7.184244,0 0,-45.43881 z"
       id="path34183"
       inkscape:connector-curvature="0" />
    <path
       d="m 54.687195,901.57657 q -0.798249,0.0614 -1.657902,0.1228 -0.859653,0 -1.719307,0 -0.736845,0 -2.026325,0 -1.28948,-0.0614 -1.964921,-0.1228 l 0,16.272 -7.184245,0 0,-45.13179 q 2.57896,-0.49123 5.157919,-0.73684 2.640364,-0.24562 5.342131,-0.24562 9.456184,0 13.815854,3.62282 4.35967,3.56142 4.35967,11.48251 0,5.21933 -1.903518,8.53513 -1.842114,3.2544 -5.894765,4.8509 l 8.71934,17.62289 -7.42986,0 -7.614071,-16.272 z m -3.07019,-5.58775 q 5.342131,0 7.614071,-2.08773 2.271941,-2.14913 2.271941,-7.06144 0,-4.9123 -2.271941,-7.00003 -2.210536,-2.08773 -7.491263,-2.08773 -0.798249,0 -2.026325,0.12281 -1.166672,0.0614 -2.394748,0.24562 l 0,17.62288 q 1.043864,0.12281 2.210536,0.18422 1.166672,0.0614 2.087729,0.0614 z"
       id="path34185"
       inkscape:connector-curvature="0" />
    <path
       d="m 79.946225,872.40976 25.543975,0 0,6.07898 -18.359731,0 0,13.44743 16.394811,0 0,6.07898 -16.394811,0 0,13.75445 18.912371,0 0,6.07897 -26.096615,0 0,-45.43881 z"
       id="path34187"
       inkscape:connector-curvature="0" />
    <path
       d="m 116.99958,872.40976 25.54398,0 0,6.07898 -18.35974,0 0,13.44743 16.39482,0 0,6.07898 -16.39482,0 0,13.75445 18.91237,0 0,6.07897 -26.09661,0 0,-45.43881 z"
       id="path34189"
       inkscape:connector-curvature="0" />
    <path
       d="m 170.23858,872.40976 10.07023,0 9.57899,27.57031 1.6579,6.81582 0.36842,0 1.71931,-6.81582 9.57899,-27.57031 10.07022,0 0,45.43881 -6.75441,0 0,-35.6142 -0.36843,0 -2.02632,7.00003 -9.27197,26.40364 -6.386,0 -9.21057,-26.40364 -2.08773,-7.00003 -0.30702,0 0,35.6142 -6.63161,0 0,-45.43881 z"
       id="path34191"
       inkscape:connector-curvature="0" />
    <path
       d="m 226.12085,872.40976 25.54398,0 0,6.07898 -18.35974,0 0,13.44743 16.39481,0 0,6.07898 -16.39481,0 0,13.75445 18.91237,0 0,6.07897 -26.09661,0 0,-45.43881 z"
       id="path34193"
       inkscape:connector-curvature="0" />
    <path
       d="m 271.03389,878.67295 -10.92987,0 0,-6.26319 29.04399,0 0,6.26319 -10.99128,0 0,39.17562 -7.12284,0 0,-39.17562 z"
       id="path34195"
       inkscape:connector-curvature="0" />
    <path
       d="m 299.02824,872.40976 7.18425,0 0,19.15799 17.37727,0 0,-19.15799 7.12284,0 0,45.43881 -7.12284,0 0,-20.14044 -17.37727,0 0,20.14044 -7.18425,0 0,-45.43881 z"
       id="path34197"
       inkscape:connector-curvature="0" />
    <path
       d="m 359.23372,918.46261 q -8.78074,0 -13.07901,-5.71055 -4.23686,-5.77196 -4.23686,-17.56149 0,-11.85093 4.23686,-17.62289 4.29827,-5.77196 13.07901,-5.77196 8.78075,0 13.01761,5.77196 4.29826,5.71055 4.29826,17.62289 0,11.78953 -4.29826,17.56149 -4.23686,5.71055 -13.01761,5.71055 z m 0,-6.01757 q 2.70177,0 4.60529,-0.92106 1.90351,-0.98246 3.07019,-3.00879 1.22807,-2.08772 1.78071,-5.34213 0.55263,-3.3158 0.55263,-7.98249 0,-4.66669 -0.55263,-7.92109 -0.55264,-3.3158 -1.78071,-5.40353 -1.22808,-2.08773 -3.1316,-3.07019 -1.90351,-0.98246 -4.54388,-0.98246 -2.70176,0 -4.60528,0.98246 -1.84212,0.92105 -3.07019,3.00878 -1.22808,2.08773 -1.78071,5.40354 -0.55264,3.3158 -0.55264,7.98249 0,4.60529 0.55264,7.92109 0.55263,3.2544 1.7193,5.34213 1.22808,2.08773 3.1316,3.07019 1.90352,0.92106 4.60528,0.92106 z"
       id="path34199"
       inkscape:connector-curvature="0" />
    <path
       d="m 396.9155,918.76963 q -1.96492,0 -4.11405,-0.12281 -2.14913,-0.12281 -5.03511,-0.42983 l 0,-45.56161 q 3.50002,-0.42983 5.95617,-0.61404 2.45615,-0.24562 4.60528,-0.24562 5.46494,0 9.33338,1.35089 3.92984,1.28948 6.38599,4.17546 2.51756,2.82457 3.68423,7.24564 1.16667,4.42108 1.16667,10.62286 0,6.26319 -1.22807,10.74567 -1.22808,4.48247 -3.86844,7.36845 -2.64036,2.82458 -6.81582,4.17546 -4.17546,1.28948 -10.07023,1.28948 z m 2.27195,-5.95617 q 3.3158,0 5.64914,-0.92106 2.33335,-0.98246 3.80704,-3.07019 1.47369,-2.08773 2.14913,-5.40353 0.73685,-3.37721 0.73685,-8.22811 0,-4.8509 -0.67544,-8.1667 -0.61404,-3.31581 -2.08773,-5.40354 -1.41229,-2.08773 -3.74563,-3.00878 -2.33335,-0.92106 -5.64915,-0.92106 -2.64037,0 -4.54388,0.42983 l 0,34.38612 q 1.41228,0.12281 2.45615,0.24562 1.04386,0.0614 1.90352,0.0614 z"
       id="path34201"
       inkscape:connector-curvature="0" />
    <path
       d="m 430.09657,872.40976 7.18424,0 0,45.43881 -7.18424,0 0,-45.43881 z"
       id="path34203"
       inkscape:connector-curvature="0" />
    <path
       d="m 460.62003,918.64682 q -2.94739,0 -6.26319,-0.61404 -3.31581,-0.61403 -6.32459,-1.6579 l 0.30702,-6.07898 q 0.98246,0.49124 2.33334,0.92106 1.35088,0.36842 2.88598,0.67544 1.53509,0.30702 3.07019,0.49123 1.53509,0.18422 2.82457,0.18422 3.86844,0 5.89477,-1.78071 2.08773,-1.78072 2.08773,-5.09652 0,-1.53509 -0.55264,-2.64036 -0.55263,-1.16668 -1.6579,-2.02633 -1.10527,-0.92106 -2.70177,-1.6579 -1.53509,-0.79825 -3.56142,-1.5351 -2.33334,-0.85965 -4.29826,-1.90351 -1.90352,-1.04387 -3.2544,-2.51756 -1.35089,-1.53509 -2.08773,-3.68423 -0.73685,-2.14913 -0.73685,-5.28072 0,-2.94739 0.98246,-5.28073 0.98246,-2.33334 2.76317,-3.99125 1.84212,-1.6579 4.42108,-2.51755 2.64036,-0.92106 5.89476,-0.92106 2.45615,0 4.91231,0.36842 2.51755,0.36843 5.28072,1.10527 l -0.24561,5.89477 q -2.57896,-0.67545 -5.09652,-1.04387 -2.51755,-0.36842 -4.29826,-0.36842 -3.50002,0 -5.46494,1.84211 -1.96492,1.78071 -1.96492,4.91231 0,1.53509 0.55263,2.64036 0.61404,1.10527 1.71931,2.02632 1.10526,0.85966 2.70176,1.65791 1.65791,0.73684 3.68423,1.53509 2.39475,0.98246 4.23686,2.14914 1.90352,1.10526 3.193,2.64036 1.35088,1.47369 2.02633,3.56142 0.67544,2.02632 0.67544,4.8509 0,3.07019 -0.98246,5.52634 -0.92106,2.39475 -2.76317,4.11405 -1.78071,1.65791 -4.35967,2.57896 -2.57896,0.92106 -5.83336,0.92106 z"
       id="path34205"
       inkscape:connector-curvature="0" />
    <path
       d="m 492.87429,878.67295 -10.92988,0 0,-6.26319 29.044,0 0,6.26319 -10.99128,0 0,39.17562 -7.12284,0 0,-39.17562 z"
       id="path34207"
       inkscape:connector-curvature="0" />
    <path
       d="m 547.70593,918.46261 q -1.41229,0 -3.00879,-0.0614 -1.5965,-0.0614 -3.193,-0.18422 -1.53509,-0.1228 -3.00878,-0.30701 -1.4737,-0.18422 -2.64037,-0.36843 l 0,-44.88617 q 2.02633,-0.24562 3.62283,-0.36843 1.6579,-0.18421 3.00878,-0.24561 1.41229,-0.12281 2.64037,-0.18421 1.22807,-0.0614 2.45615,-0.0614 8.35091,0 12.21935,3.07019 3.92985,3.00879 3.92985,9.51759 0,4.17546 -1.78071,6.69302 -1.71931,2.51755 -5.03512,3.3158 l 0,0.24562 q 3.86844,0.73684 5.95617,3.62282 2.14914,2.82458 2.14914,7.42986 0,6.38599 -4.35967,9.57899 -4.35967,3.193 -12.9562,3.193 z m 1.04386,-5.52634 q 8.90355,-0.12281 8.90355,-7.61407 0,-4.11406 -2.21054,-5.89477 -2.21053,-1.78071 -7.49126,-1.78071 l -5.46494,0 0,14.79832 q 0.36843,0.12281 1.04387,0.18421 0.73684,0.0614 1.5965,0.18421 0.85965,0.0614 1.78071,0.12281 0.98246,0 1.84211,0 z m -0.85965,-20.63168 q 4.66669,0 6.5088,-1.6579 1.90352,-1.71931 1.90352,-5.89476 0,-7.30706 -7.9825,-7.30706 -1.47369,0 -2.88598,0.12281 -1.35088,0.0614 -2.94738,0.30702 l 0,14.42989 5.40354,0 z"
       id="path34209"
       inkscape:connector-curvature="0" />
    <path
       d="m 575.90663,872.40976 7.18424,0 0,45.43881 -7.18424,0 0,-45.43881 z"
       id="path34211"
       inkscape:connector-curvature="0" />
    <path
       d="m 607.78094,918.46261 q -1.41229,0 -3.00879,-0.0614 -1.5965,-0.0614 -3.193,-0.18422 -1.53509,-0.1228 -3.00878,-0.30701 -1.47369,-0.18422 -2.64037,-0.36843 l 0,-44.88617 q 2.02633,-0.24562 3.62283,-0.36843 1.6579,-0.18421 3.00878,-0.24561 1.41229,-0.12281 2.64037,-0.18421 1.22807,-0.0614 2.45615,-0.0614 8.35092,0 12.21936,3.07019 3.92984,3.00879 3.92984,9.51759 0,4.17546 -1.78071,6.69302 -1.71931,2.51755 -5.03511,3.3158 l 0,0.24562 q 3.86844,0.73684 5.95617,3.62282 2.14913,2.82458 2.14913,7.42986 0,6.38599 -4.35967,9.57899 -4.35967,3.193 -12.9562,3.193 z m 1.04386,-5.52634 q 8.90355,-0.12281 8.90355,-7.61407 0,-4.11406 -2.21053,-5.89477 -2.21054,-1.78071 -7.49127,-1.78071 l -5.46494,0 0,14.79832 q 0.36843,0.12281 1.04387,0.18421 0.73684,0.0614 1.5965,0.18421 0.85965,0.0614 1.78071,0.12281 0.98246,0 1.84211,0 z m -0.85965,-20.63168 q 4.66669,0 6.5088,-1.6579 1.90352,-1.71931 1.90352,-5.89476 0,-7.30706 -7.98249,-7.30706 -1.4737,0 -2.88598,0.12281 -1.35089,0.0614 -2.94739,0.30702 l 0,14.42989 5.40354,0 z"
       id="path34213"
       inkscape:connector-curvature="0" />
    <path
       d="m 635.98158,872.40976 7.18424,0 0,39.35984 14.73691,0 0,6.07897 -21.92115,0 0,-45.43881 z"
       id="path34215"
       inkscape:connector-curvature="0" />
    <path
       d="m 667.5182,872.40976 25.54398,0 0,6.07898 -18.35974,0 0,13.44743 16.39482,0 0,6.07898 -16.39482,0 0,13.75445 18.91237,0 0,6.07897 -26.09661,0 0,-45.43881 z"
       id="path34217"
       inkscape:connector-curvature="0" />
    <path
       d="m 750.53806,925.33984 q -8.78075,-1.90352 -14.85972,-4.23687 -6.01758,-2.27194 -9.76321,-5.64915 -3.68422,-3.37721 -5.34213,-8.22811 -1.6579,-4.9123 -1.6579,-12.03514 0,-11.85093 4.23686,-17.62289 4.29827,-5.77196 13.07901,-5.77196 8.84215,0 13.07901,5.77196 4.23686,5.71055 4.23686,17.62289 0,9.6404 -3.56142,14.85972 -3.56142,5.21932 -10.80707,6.4474 l 0,0.55263 q 2.82458,1.04387 6.32459,1.5965 3.56142,0.55264 8.84215,0.98246 l -3.80703,5.71056 z m -14.30709,-12.77199 q 2.70177,0 4.60529,-0.92106 1.96492,-0.98246 3.19299,-3.07019 1.22808,-2.08773 1.78071,-5.34213 0.55264,-3.31581 0.55264,-8.0439 0,-4.72809 -0.55264,-8.0439 -0.55263,-3.37721 -1.78071,-5.46493 -1.22807,-2.14914 -3.13159,-3.07019 -1.90352,-0.98247 -4.66669,-0.98247 -2.76317,0 -4.72809,0.98247 -1.90352,0.92105 -3.13159,3.00878 -1.16668,2.08773 -1.71931,5.46494 -0.55264,3.3158 -0.55264,8.1053 0,4.72809 0.55264,8.0439 0.55263,3.3158 1.71931,5.40353 1.22807,2.08773 3.13159,3.00879 1.96492,0.92106 4.72809,0.92106 z"
       id="path34219"
       inkscape:connector-curvature="0" />
    <path
       d="m 780.48874,918.46261 q -4.42108,0 -7.49127,-1.10527 -3.07019,-1.10527 -5.03511,-3.3158 -1.90352,-2.27194 -2.76317,-5.71056 -0.85965,-3.43861 -0.85965,-8.1053 l 0,-27.81592 7.12284,0 0,27.4475 q 0,6.63161 2.08773,9.57899 2.14913,2.88598 6.93863,2.88598 4.9123,0 6.93863,-2.88598 2.08773,-2.88598 2.08773,-9.57899 l 0,-27.4475 7.18424,0 0,27.81592 q 0,4.72809 -0.92106,8.16671 -0.85965,3.37721 -2.82457,5.64915 -1.90352,2.27194 -4.97371,3.37721 -3.07019,1.04386 -7.49126,1.04386 z"
       id="path34222"
       inkscape:connector-curvature="0" />
    <path
       d="m 809.25544,872.40976 7.18425,0 0,45.43881 -7.18425,0 0,-45.43881 z"
       id="path34224"
       inkscape:connector-curvature="0" />
    <path
       d="m 826.88407,911.52398 19.09658,-32.48261 0,-0.49123 -18.42114,0 0,-6.14038 26.46504,0 0,6.32459 -19.09658,32.54402 0,0.42982 19.77202,0 0,6.14038 -27.81592,0 0,-6.32459 z"
       id="path34226"
       inkscape:connector-curvature="0" />
    <path
       d="m 862.85807,911.52398 19.09658,-32.48261 0,-0.49123 -18.42114,0 0,-6.14038 26.46504,0 0,6.32459 -19.09658,32.54402 0,0.42982 19.77202,0 0,6.14038 -27.81592,0 0,-6.32459 z"
       id="path34228"
       inkscape:connector-curvature="0" />
    <path
       d="m 901.22682,872.40976 7.18424,0 0,45.43881 -7.18424,0 0,-45.43881 z"
       id="path34230"
       inkscape:connector-curvature="0" />
    <path
       d="m 921.2502,872.40976 6.26318,0 17.19307,27.87733 2.51755,5.03511 0.42983,0 0,-32.91244 6.4474,0 0,45.43881 -6.26319,0 -17.13166,-27.87732 -2.57896,-5.09652 -0.49123,0 0,32.97384 -6.38599,0 0,-45.43881 z"
       id="path34232"
       inkscape:connector-curvature="0" />
    <path
       d="m 983.94734,918.46261 q -9.7018,-0.0614 -14.24568,-5.71055 -4.48248,-5.64915 -4.48248,-17.56149 0,-6.01757 1.16667,-10.37724 1.22808,-4.42107 3.68423,-7.24565 2.51756,-2.88598 6.26319,-4.23686 3.80703,-1.41229 9.02636,-1.41229 1.96492,0 4.42107,0.30702 2.45615,0.24562 4.9123,0.79825 l 0,5.83336 q -2.57895,-0.49123 -4.72809,-0.73684 -2.08773,-0.24562 -3.86844,-0.24562 -3.74563,0 -6.32459,0.92106 -2.57896,0.85965 -4.17546,2.94738 -1.59649,2.02632 -2.33334,5.34213 -0.67544,3.3158 -0.67544,8.1053 0,4.72809 0.61404,8.0439 0.67544,3.2544 2.08772,5.28072 1.4737,2.02633 3.80704,2.94739 2.33334,0.92105 5.64915,0.92105 1.71931,0 3.74563,-0.18421 l 0,-17.43868 6.5088,0 0,22.71941 q -3.62282,0.49123 -6.20178,0.73684 -2.51756,0.24562 -4.8509,0.24562 z"
       id="path34234"
       inkscape:connector-curvature="0" />
  </g>
  <path
     style="opacity:1;fill:#856d5e;fill-opacity:1;stroke:none;stroke-width:4;stroke-linecap:butt;stroke-linejoin:miter;stroke-miterlimit:4;stroke-dasharray:none;stroke-dashoffset:0;stroke-opacity:1"
     d="m 59.914566,626 a 42.862067,42.871881 0 0 0 -30.901864,30.9339 l 32.98641,2.08502 L 59.914566,626 Z m 21.158632,0 -2.084521,33.00035 L 112,656.91489 A 42.862067,42.871881 0 0 0 81.073198,626 Z m -19.074086,49.99336 -32.999116,2.08544 a 42.862067,42.871881 0 0 0 30.91457,30.90217 l 2.084546,-32.98761 z m 16.989565,0 L 81.073198,709 a 42.862067,42.871881 0 0 0 30.901912,-30.9212 l -32.986433,-2.08544 z"
     id="path34176"
     inkscape:connector-curvature="0" />
  <path
     inkscape:connector-curvature="0"
     id="path34178"
     d="m 914.91456,626 a 42.86208,42.871884 0 0 0 -30.90189,30.9339 L 916.9991,659.01892 914.91456,626 Z m 21.15863,0 -2.08452,33.00035 L 967,656.91489 A 42.86208,42.871884 0 0 0 936.07319,626 Z M 916.9991,675.99335 884,678.0788 a 42.86208,42.871884 0 0 0 30.91456,30.90217 l 2.08454,-32.98762 z m 16.98957,0 L 936.07319,709 a 42.86208,42.871884 0 0 0 30.90192,-30.9212 l -32.98644,-2.08545 z"
     style="opacity:1;fill:#856d5e;fill-opacity:1;stroke:none;stroke-width:4;stroke-linecap:butt;stroke-linejoin:miter;stroke-miterlimit:4;stroke-dasharray:none;stroke-dashoffset:0;stroke-opacity:1" />
  <g
     style="font-style:normal;font-variant:normal;font-weight:600;font-stretch:normal;font-size:33.75px;line-height:100%;font-family:'Encode Sans Compressed';-inkscape-font-specification:'Encode Sans Compressed Semi-Bold';text-align:center;letter-spacing:2px;word-spacing:0px;writing-mode:lr-tb;text-anchor:middle;fill:#332163;fill-opacity:1;stroke:none;stroke-width:1px;stroke-linecap:butt;stroke-linejoin:miter;stroke-opacity:1"
     id="text34141"
     inkscape:transform-center-y="-234.31126"
     transform="matrix(2.4268259,0.01263823,-0.01263823,2.4268259,-707.27999,-743.83308)"
     inkscape:transform-center-x="-0.018544675">
    <path
       d="m 312.24271,512.62786 0.111,-3.94719 24.96513,0.70202 -0.111,3.94719 -24.96513,-0.70202 z"
       style="font-size:33.75px"
       id="path34198"
       inkscape:connector-curvature="0" />
    <path
       d="m 312.71083,499.65974 0.46164,-3.41141 16.45134,-7.30991 2.92806,-1.00013 0.0317,-0.23412 -17.92661,-2.42585 0.47521,-3.51174 24.74942,3.34912 -0.46163,3.41141 -16.44682,7.27647 -2.96603,1.02905 -0.0362,0.26756 17.96005,2.43038 -0.47068,3.47829 -24.74943,-3.34912 z"
       style="font-size:33.75px"
       id="path34200"
       inkscape:connector-curvature="0" />
    <path
       d="m 343.29372,473.45943 q -0.42797,1.56244 -1.23495,3.23103 -0.80698,1.66859 -1.79724,3.11202 l -3.17796,-1.04545 q 0.40306,-0.44949 0.82708,-1.1032 0.39146,-0.66262 0.77711,-1.43182 0.38566,-0.76919 0.70622,-1.55622 0.32055,-0.78702 0.50779,-1.47059 0.56172,-2.05071 -0.088,-3.38346 -0.64083,-1.3653 -2.39858,-1.84677 -0.81377,-0.22291 -1.47994,-0.0904 -0.69871,0.12355 -1.31491,0.58465 -0.64876,0.45217 -1.27119,1.1915 -0.64606,0.69787 -1.33091,1.66506 -0.79452,1.11211 -1.63321,2.00216 -0.82976,0.85751 -1.80714,1.35964 -1.00993,0.49322 -2.25621,0.57177 -1.24627,0.0786 -2.90637,-0.37618 -1.56245,-0.42797 -2.65673,-1.2876 -1.09428,-0.85963 -1.71458,-2.04434 -0.6114,-1.21726 -0.69263,-2.70923 -0.10487,-1.53343 0.36768,-3.25863 0.35664,-1.30204 0.9086,-2.55058 0.56086,-1.2811 1.3527,-2.6389 l 3.08923,0.98616 q -0.73254,1.26906 -1.29341,2.55015 -0.56086,1.28109 -0.81943,2.22507 -0.50822,1.85541 0.18299,3.16452 0.65866,1.3002 2.31876,1.75492 0.81378,0.2229 1.47994,0.0904 0.67508,-0.16502 1.32383,-0.6172 0.61621,-0.46109 1.27119,-1.19151 0.63135,-0.77188 1.34874,-1.73015 0.86854,-1.12683 1.7545,-1.93395 0.86231,-0.84859 1.86333,-1.30926 0.97737,-0.50213 2.18218,-0.55705 1.17226,-0.0638 2.66961,0.34632 1.62755,0.4458 2.78693,1.32326 1.13574,0.836 1.77969,2.06218 0.6203,1.18471 0.73409,2.68559 0.11379,1.50088 -0.35877,3.22609 z"
       style="font-size:33.75px"
       id="path34202"
       inkscape:connector-curvature="0" />
    <path
       d="m 328.22449,449.11183 -2.24964,5.57039 -3.19202,-1.28912 5.97797,-14.8022 3.19202,1.28911 -2.26228,5.60168 19.96577,8.06331 -1.46606,3.63014 -19.96576,-8.06331 z"
       style="font-size:33.75px"
       id="path34204"
       inkscape:connector-curvature="0" />
    <path
       d="m 331.92463,432.33569 1.80485,-3.51215 22.21356,11.41527 -1.80485,3.51215 -22.21356,-11.41527 z"
       style="font-size:33.75px"
       id="path34206"
       inkscape:connector-curvature="0" />
    <path
       d="m 337.78117,421.42286 2.09044,-3.35003 18.35358,11.45274 4.28808,-6.87186 2.83464,1.76883 -6.37851,10.22189 -21.18823,-13.22157 z"
       style="font-size:33.75px"
       id="path34208"
       inkscape:connector-curvature="0" />
    <path
       d="m 348.30252,405.43712 2.41544,-3.12382 17.11429,13.23329 4.95474,-6.40785 2.64324,2.04383 -7.37018,9.53168 -19.75753,-15.27713 z"
       style="font-size:33.75px"
       id="path34210"
       inkscape:connector-curvature="0" />
    <path
       d="m 395.7443,360.03259 11.95804,-7.3571 1.75085,2.84578 -8.59484,5.28792 3.87309,6.29521 7.67499,-4.72198 1.75085,2.84578 -7.67499,4.72199 3.96152,6.43894 8.85354,-5.44709 1.75085,2.84579 -12.21674,7.51627 -13.08716,-21.27151 z"
       style="font-size:33.75px"
       id="path34214"
       inkscape:connector-curvature="0" />
    <path
       d="m 431.216,369.323 q -1.47007,0.68067 -3.2657,1.14016 -1.79562,0.45949 -3.53739,0.63369 l -1.25074,-3.10291 q 0.60346,0.0181 1.37651,-0.0795 0.75886,-0.12821 1.59542,-0.3296 0.83656,-0.20138 1.64476,-0.46402 0.8082,-0.26263 1.45136,-0.56042 1.92945,-0.89338 2.52889,-2.24951 0.63005,-1.3703 -0.1357,-3.02412 -0.35451,-0.76566 -0.8854,-1.18931 -0.54507,-0.45428 -1.29487,-0.62779 -0.76399,-0.20415 -1.73044,-0.20297 -0.95001,-0.0436 -2.13084,0.0568 -1.36233,0.11009 -2.58345,0.0432 -1.19048,-0.0811 -2.2046,-0.50411 -1.02829,-0.45369 -1.89213,-1.35544 -0.86384,-0.90176 -1.58705,-2.4637 -0.68067,-1.47006 -0.72951,-2.86075 -0.0488,-1.39069 0.45645,-2.62884 0.53591,-1.25233 1.62369,-2.27669 1.10422,-1.06916 2.72742,-1.82073 1.22505,-0.56723 2.53519,-0.95069 1.34076,-0.39765 2.88911,-0.66826 l 1.23884,2.99685 q -1.4423,0.2587 -2.78306,0.65634 -1.34076,0.39765 -2.22893,0.80889 -1.7457,0.80829 -2.30032,2.18086 -0.56881,1.34195 0.1544,2.90389 0.35452,0.76566 0.88541,1.18931 0.56151,0.40946 1.32549,0.61361 0.74981,0.17352 1.73044,0.20296 0.99708,-0.0154 2.1921,-0.0852 1.42131,-0.063 2.60953,0.0935 1.20467,0.11168 2.20234,0.57954 1.01412,0.42306 1.83315,1.30837 0.80485,0.85468 1.45715,2.2635 0.70903,1.53131 0.78624,2.98326 0.0937,1.40713 -0.42809,2.69009 -0.50528,1.23815 -1.57888,2.29313 -1.0736,1.05498 -2.69679,1.80655 z"
       style="font-size:33.75px"
       id="path34221"
       inkscape:connector-curvature="0" />
    <path
       d="m 439.97823,342.15297 -5.69608,1.90912 -1.09399,-3.26404 15.1362,-5.07312 1.094,3.26404 -5.72808,1.91985 6.84281,20.41628 -3.71205,1.24415 -6.84281,-20.41628 z"
       style="font-size:33.75px"
       id="path34223"
       inkscape:connector-curvature="0" />
    <path
       d="m 456.86722,358.98363 1.68089,-25.63844 5.71875,-1.17765 11.6739,22.88832 0.0408,0.19834 -3.60315,0.74199 -3.339,-6.34188 -7.99964,1.64735 -0.49554,7.13152 -3.6362,0.74879 -0.0409,-0.19834 z m 10.79831,-12.31991 -3.8349,-7.41134 -1.63451,-3.41935 -0.29751,0.0613 -0.18359,3.79375 -0.5616,8.31669 6.51211,-1.34102 z"
       style="font-size:33.75px"
       id="path34225"
       inkscape:connector-curvature="0" />
    <path
       d="m 486.83361,354.69157 q -0.77432,0.0547 -1.65202,0.0828 -0.8777,0.0281 -1.75777,0.0226 -0.84641,-0.008 -1.66153,-0.0519 -0.81512,-0.0439 -1.46191,-0.0998 l -1.73757,-24.60999 q 1.10147,-0.21311 1.97204,-0.34224 0.90186,-0.16518 1.64013,-0.25114 0.76957,-0.122 1.44052,-0.20321 0.67095,-0.0812 1.34427,-0.12874 4.5786,-0.32327 6.81842,1.21029 2.27111,1.49752 2.52307,5.06613 0.16164,2.2893 -0.71723,3.73855 -0.8452,1.44687 -2.63227,2.01289 l 0.01,0.13466 q 2.14949,0.25425 3.40586,1.75574 1.28766,1.46545 1.46593,3.99041 0.24721,3.50129 -2.01949,5.4207 -2.26669,1.9194 -6.97996,2.25218 z m 0.3584,-3.07037 q 4.87684,-0.41199 4.58685,-4.51927 -0.15926,-2.25563 -1.44017,-3.14638 -1.28092,-0.89075 -4.17621,-0.68633 l -2.99629,0.21156 0.57285,8.11355 q 0.20675,0.0531 0.57946,0.0606 0.40637,0.005 0.88245,0.0392 0.4737,3.9e-4 0.98107,-0.002 0.53866,-0.038 1.00999,-0.0713 z m -1.27,-11.27856 q 2.55863,-0.18065 3.50444,-1.16095 0.9771,-1.01634 0.81546,-3.30564 -0.28286,-4.00627 -4.65946,-3.69727 -0.80799,0.0571 -1.57756,0.17906 -0.73828,0.086 -1.60409,0.28242 l 0.55859,7.91156 2.96262,-0.20918 z"
       style="font-size:33.75px"
       id="path34227"
       inkscape:connector-curvature="0" />
    <path
       d="m 502.722,328.86727 3.94477,0.17725 -0.97106,21.61194 8.09184,0.36358 -0.14998,3.33788 -12.03661,-0.54082 1.12104,-24.94983 z"
       style="font-size:33.75px"
       id="path34229"
       inkscape:connector-curvature="0" />
    <path
       d="m 521.36595,330.18289 3.91673,0.50185 -3.17406,24.77248 -3.91673,-0.50184 3.17406,-24.77249 z"
       style="font-size:33.75px"
       id="path34231"
       inkscape:connector-curvature="0" />
    <path
       d="m 533.94829,358.03501 q -1.58218,-0.348 -3.28963,-1.06913 -1.70745,-0.72113 -3.19934,-1.63674 l 0.88257,-3.22699 q 0.46939,0.37969 1.1438,0.76993 0.68167,0.35728 1.46947,0.70334 0.7878,0.34606 1.5901,0.6262 0.80231,0.28014 1.49451,0.43239 2.07661,0.45676 3.37461,-0.25989 1.33096,-0.70939 1.72247,-2.48934 0.18125,-0.82406 0.0151,-1.48262 -0.15891,-0.69154 -0.65073,-1.28351 -0.48456,-0.62493 -1.25457,-1.20898 -0.7298,-0.60976 -1.73055,-1.24456 -1.15106,-0.73697 -2.08259,-1.52933 -0.89858,-0.78511 -1.44974,-1.7357 -0.54391,-0.98355 -0.6857,-2.22423 -0.14179,-1.24067 0.22796,-2.92174 0.34801,-1.58218 1.15091,-2.71873 0.80289,-1.13656 1.95455,-1.81628 1.18461,-0.67248 2.67052,-0.82944 1.52612,-0.18268 3.27311,0.20158 1.31848,0.29 2.59347,0.77778 1.30794,0.49503 2.70423,1.21683 l -0.82786,3.13536 q -1.30465,-0.66709 -2.6126,-1.16212 -1.30794,-0.49502 -2.26384,-0.70528 -1.87884,-0.41325 -3.15113,0.3436 -1.26504,0.7239 -1.63479,2.40497 -0.18126,0.82405 -0.0151,1.48262 0.19912,0.66582 0.68368,1.29075 0.49182,0.59197 1.25458,1.20898 0.80298,0.5913 1.79647,1.25906 1.16952,0.81015 2.02063,1.65393 0.89133,0.81807 1.40228,1.79437 0.55116,0.9506 0.66724,2.15106 0.12333,1.1675 -0.21018,2.68375 -0.3625,1.64811 -1.1799,2.85059 -0.77719,1.17677 -1.96905,1.8822 -1.15166,0.67972 -2.64481,0.86965 -1.49316,0.18993 -3.24015,-0.19433 z"
       style="font-size:33.75px"
       id="path34233"
       inkscape:connector-curvature="0" />
    <path
       d="m 554.93021,337.10032 3.71217,1.34625 -3.59,9.89913 8.97903,3.25632 3.58999,-9.89914 3.68045,1.33475 -8.51474,23.47871 -3.68045,-1.33475 3.7741,-10.40677 -8.97902,-3.25632 -3.7741,10.40678 -3.71217,-1.34625 8.51474,-23.47871 z"
       style="font-size:33.75px"
       id="path34242"
       inkscape:connector-curvature="0" />
    <path
       d="m 619.7986,372.88672 q 1.27995,0.79989 2.41912,1.65419 1.16413,0.87702 2.21243,1.83116 3.84375,3.49851 4.20739,6.65894 0.36363,3.16043 -2.70324,6.52996 -3.04416,3.34457 -6.22477,3.27911 -3.15789,-0.0904 -7.00165,-3.58893 -0.34943,-0.31804 -0.6739,-0.61337 -0.32448,-0.29533 -0.65119,-0.63834 l -5.36135,5.89044 -2.92025,-2.65796 16.69741,-18.3452 z m -4.51048,14.3318 q 2.14651,1.95372 3.91056,1.87077 1.78901,-0.0602 3.76544,-2.23171 1.95371,-2.14651 1.87076,-3.91056 -0.0353,-1.7663 -2.18179,-3.72001 -0.42431,-0.3862 -0.94397,-0.76791 -0.49695,-0.40667 -0.98941,-0.71799 l -7.06517,7.76239 q 0.35392,0.4134 0.75776,0.87223 0.45151,0.4566 0.87582,0.84279 z"
       style="font-size:33.75px"
       id="path34246"
       inkscape:connector-curvature="0" />
    <path
       d="m 630.20242,405.8323 q -0.30962,-0.31268 -0.64109,-0.6511 -0.30574,-0.36025 -0.61147,-0.7205 -0.26206,-0.30879 -0.72066,-0.84917 -0.43287,-0.56222 -0.64736,-0.86712 l -6.81908,5.78712 -2.55507,-3.01069 18.91331,-16.05106 q 1.12307,0.90605 2.1432,1.89946 1.04197,1.01914 2.00285,2.15137 3.36308,3.96279 3.39538,7.07824 0.058,3.09361 -3.26145,5.91074 -2.18725,1.85625 -4.25379,2.2378 -2.01896,0.38545 -4.12932,-0.74509 l -4.28418,9.92156 -2.64242,-3.11362 4.11115,-8.97794 z m 1.24974,-3.27389 q 1.89993,2.23872 3.58284,2.44832 1.70865,0.18776 3.76724,-1.5593 2.05859,-1.74705 2.12548,-3.44165 0.0887,-1.66886 -1.78936,-3.88185 -0.28389,-0.33452 -0.77212,-0.80549 -0.44066,-0.46708 -0.95462,-0.91621 l -7.3852,6.26756 q 0.31978,0.48112 0.70898,0.99188 0.38919,0.51075 0.71676,0.89674 z"
       style="font-size:33.75px"
       id="path34250"
       inkscape:connector-curvature="0" />
    <path
       d="m 652.48694,408.31072 7.67296,11.75786 -2.79814,1.82602 -5.51494,-8.45096 -6.18984,4.03937 4.92472,7.54651 -2.79814,1.82602 -4.92472,-7.54651 -6.33115,4.1316 5.68094,8.70534 -2.79814,1.82602 -7.83897,-12.01224 20.91542,-13.64903 z"
       style="font-size:33.75px"
       id="path34254"
       inkscape:connector-curvature="0" />
    <path
       d="m 664.26262,427.70532 q 0.89697,1.2139 1.64302,2.42673 0.76093,1.24312 1.3858,2.51545 2.2912,4.66524 1.46932,7.73852 -0.82187,3.07329 -4.91153,5.08181 -4.05936,1.99364 -6.9939,0.76522 -2.90425,-1.2433 -5.19545,-5.90854 -0.20829,-0.42411 -0.4017,-0.81793 -0.19342,-0.39381 -0.37141,-0.8328 l -7.14932,3.51119 -1.74072,-3.54437 22.26589,-10.93528 z m -9.4565,11.67561 q 1.27951,2.60526 2.95086,3.17565 1.68623,0.60068 4.32178,-0.6937 2.60526,-1.27951 3.17564,-2.95086 0.61556,-1.65593 -0.66394,-4.26119 -0.25293,-0.515 -0.59619,-1.06082 -0.31298,-0.5607 -0.65678,-1.03106 l -9.42135,4.62703 q 0.17746,0.51446 0.38467,1.0895 0.25239,0.59046 0.50531,1.10545 z"
       style="font-size:33.75px"
       id="path34256"
       inkscape:connector-curvature="0" />
    <path
       d="m 649.90425,454.46414 25.64821,-1.52454 1.88055,5.52761 -21.25664,14.43296 -0.1917,0.0652 -1.18486,-3.48271 5.87677,-4.10267 -2.6306,-7.73227 -7.13771,0.39629 -1.19573,-3.51467 0.19171,-0.0652 z m 13.56858,9.18026 6.87616,-4.72787 3.18922,-2.04754 -0.0978,-0.28757 -3.78708,0.29022 -8.3219,0.47831 2.14143,6.29445 z"
       style="font-size:33.75px"
       id="path34258"
       inkscape:connector-curvature="0" />
    <path
       d="m 667.28096,483.32511 q -0.11801,-0.42393 -0.24256,-0.88097 -0.0914,-0.46357 -0.18286,-0.92713 -0.0784,-0.39735 -0.21552,-1.0927 -0.10404,-0.70189 -0.14276,-1.07265 l -8.77471,1.73068 -0.76411,-3.87412 24.33739,-4.80019 q 0.53919,1.33847 0.94593,2.70305 0.41328,1.3977 0.70064,2.85463 1.00575,5.09926 -0.48417,7.83554 -1.45681,2.72975 -5.72827,3.57223 -2.81453,0.55512 -4.80504,-0.11868 -1.95086,-0.64723 -3.24281,-2.66283 l -8.57579,6.57628 -0.79023,-4.00656 7.96487,-5.83658 z m 2.68666,-2.24992 q 0.56818,2.88076 1.93564,3.88385 1.40056,0.99657 4.04953,0.4741 2.64897,-0.52247 3.53313,-1.96967 0.8907,-1.41408 0.32905,-4.26172 -0.0849,-0.43046 -0.28174,-1.07964 -0.1572,-0.6226 -0.38716,-1.26524 l -9.50317,1.87436 q 0.0448,0.57596 0.13578,1.21162 0.091,0.63566 0.18894,1.13234 z"
       style="font-size:33.75px"
       id="path34262"
       inkscape:connector-curvature="0" />
    <path
       d="m 685.52721,496.35725 0.96637,14.00671 -3.33332,0.22997 -0.69458,-10.06731 -7.37372,0.50873 0.62024,8.98988 -3.33333,0.22998 -0.62024,-8.98988 -7.54207,0.52035 0.71549,10.37035 -3.33333,0.22998 -0.98728,-14.30974 24.91577,-1.71902 z"
       style="font-size:33.75px"
       id="path34264"
       inkscape:connector-curvature="0" />
  </g>
  <g
     id="g34236"
     transform="translate(-0.41479602,0.80859)">
    <path
       inkscape:connector-curvature="0"
       style="opacity:1;fill:#9d8b7f;fill-opacity:1;stroke:none;stroke-width:1;stroke-linecap:round;stroke-linejoin:round;stroke-miterlimit:4;stroke-dasharray:none;stroke-dashoffset:0;stroke-opacity:1"
       d="m 225.84319,200.30192 a 13.714422,13.714422 0 0 1 -13.82308,13.60489 13.714422,13.714422 0 0 1 -13.60488,-13.82309 13.714422,13.714422 0 0 1 13.82308,-13.60488 13.714422,13.714422 0 0 1 13.60488,13.82308 z"
       id="path34188" />
    <path
       inkscape:connector-curvature="0"
       style="opacity:1;fill:#9d8b7f;fill-opacity:1;stroke:none;stroke-width:1;stroke-linecap:round;stroke-linejoin:round;stroke-miterlimit:4;stroke-dasharray:none;stroke-dashoffset:0;stroke-opacity:1"
       d="m 738.60196,153.21105 a 13.714422,13.714422 0 0 1 -13.82308,13.60489 13.714422,13.714422 0 0 1 -13.60488,-13.82308 13.714422,13.714422 0 0 1 13.82308,-13.60489 13.714422,13.714422 0 0 1 13.60488,13.82308 z"
       id="path34190" />
  </g>
  <path
     style="opacity:1;fill:#ffffff;fill-opacity:1;stroke:none;stroke-width:5.32785368;stroke-linecap:butt;stroke-linejoin:round;stroke-miterlimit:4;stroke-dasharray:none;stroke-dashoffset:0;stroke-opacity:1"
     d="m 498.28051,238.52148 c 0,0 -4.09439,4.35216 -10.10742,11.53125 l 0,96.8457 9.89453,9.89454 10.34961,-10.34376 0,-96.36523 c -6.02794,-7.19763 -10.13672,-11.5625 -10.13672,-11.5625 z m -60.70117,108.57227 0,20.24414 49.95117,0 10.34961,-10.34571 -9.90039,-9.89843 -50.40039,0 z m 70.58203,0 -9.89453,9.89843 10.3457,10.34571 50.375,0 0,-20.24414 -50.82617,0 z m -10.09375,10.08593 -9.89453,9.90039 0,283.79102 a 577.79999,89.099998 0 0 1 11.41211,-0.0625 577.79999,89.099998 0 0 1 8.83203,0.0684 l 0,-283.3457 -10.34961,-10.35157 z"
     id="path34015"
     inkscape:connector-curvature="0" />
  <path
     style="color:#000000;font-style:normal;font-variant:normal;font-weight:normal;font-stretch:normal;font-size:medium;line-height:normal;font-family:sans-serif;text-indent:0;text-align:start;text-decoration:none;text-decoration-line:none;text-decoration-style:solid;text-decoration-color:#000000;letter-spacing:normal;word-spacing:normal;text-transform:none;direction:ltr;block-progression:tb;writing-mode:lr-tb;baseline-shift:baseline;text-anchor:start;white-space:normal;clip-rule:nonzero;display:inline;overflow:visible;visibility:visible;opacity:1;isolation:auto;mix-blend-mode:normal;color-interpolation:sRGB;color-interpolation-filters:linearRGB;solid-color:#000000;solid-opacity:1;fill:#9d8b7f;fill-opacity:1;fill-rule:nonzero;stroke:none;stroke-width:5.32785368;stroke-linecap:butt;stroke-linejoin:round;stroke-miterlimit:4;stroke-dasharray:none;stroke-dashoffset:0;stroke-opacity:1;color-rendering:auto;image-rendering:auto;shape-rendering:auto;text-rendering:auto;enable-background:accumulate"
     d="m 498.32153,235.85742 a 2.6641932,2.6641932 0 0 0 -1.98242,0.83789 c 0,0 -4.15223,4.4175 -10.20703,11.64648 a 2.6641932,2.6641932 0 0 0 -0.62305,1.71094 l 0,94.37695 -47.92969,0 a 2.6641932,2.6641932 0 0 0 -2.66406,2.66407 l 0,20.24414 A 2.6641932,2.6641932 0 0 0 437.57934,370 l 47.92969,0 0,280.88476 a 577.79999,89.099998 0 0 1 5.32812,-0.0293 l 0,-282.67188 7.23243,-7.23438 7.68554,7.68555 0,282.22071 a 577.79999,89.099998 0 0 1 5.32617,0.041 l 0,-280.89648 47.90625,0 a 2.6641932,2.6641932 0 0 0 2.66407,-2.66211 l 0,-20.24414 a 2.6641932,2.6641932 0 0 0 -2.66407,-2.66407 l -47.90625,0 0,-94.3457 a 2.6641932,2.6641932 0 0 0 -0.62109,-1.71094 c -6.0702,-7.24811 -10.24023,-11.67773 -10.24023,-11.67773 a 2.6641932,2.6641932 0 0 0 -1.89844,-0.83789 z m -0.041,6.70312 c 1.1071,1.19766 3.20121,3.46899 7.47461,8.52539 l 0,94.25977 -7.6875,7.67969 -7.23047,-7.23047 0,-94.74024 c 4.2574,-5.03734 6.33806,-7.29723 7.44336,-8.49414 z m -58.03711,107.19532 46.63282,0 7.23632,7.23632 -7.68554,7.68164 -46.1836,0 0,-14.91796 z m 69.02344,0 47.05664,0 0,14.91796 -46.60742,0 -7.68164,-7.68164 7.23242,-7.23632 z"
     id="path34318"
     inkscape:connector-curvature="0" />
  <g
     id="g34726"
     transform="matrix(2.4561519,0,0,2.4561519,-725.24511,-727.69691)">
    <g
       id="g34031"
       transform="matrix(0.41156309,0.00893335,-0.02806732,0.41197799,318.97733,227.82889)">
      <path
         style="fill:#2e1a4e;fill-opacity:1;fill-rule:evenodd;stroke:none;stroke-width:1px;stroke-linecap:butt;stroke-linejoin:miter;stroke-opacity:1"
         d="m 488.15042,752.52582 -254.49776,5.06453 c -5.39255,-0.14675 -10.26778,1.82769 -11.01672,6.75366 l -32.07856,193.03633 c -2.21247,10.42261 2.77332,21.17351 23.00042,21.75019 l 271.72931,-6.67896 c 7.33795,-2.62922 11.37003,-8.22725 16.35923,-13.82598 5.34973,4.92689 11.18087,12.02717 20.56956,13.02522 l 272.71165,-6.01779 c 13.95402,-0.51087 18.25761,-10.30872 16.07767,-21.20774 L 753.00109,752.89129 c -1.4632,-3.92482 -3.60996,-6.86482 -10.90217,-6.76615 z"
         id="path34033"
         inkscape:connector-curvature="0"
         sodipodi:nodetypes="ccccccccccccc" />
      <path
         inkscape:connector-curvature="0"
         id="path34035"
         d="m 264.78555,734.21337 -3.30407,0.60145 -13.33333,14.81481 -2.96297,0 -8.53896,15.70935 -4.95028,1.6964 -27.99224,190.74242 c 1.31623,4.7882 6.19346,8.56475 13.66487,7.93451 l 262.91509,-10.69485 c 9.37707,-0.85739 15.0764,-9.49499 21.19782,-17.23968 l -3.93813,-5.15763 c -60.0549,-39.11351 -158.29781,-21.36795 -248.09844,-16.1923 -4.68229,-0.26119 -7.26382,-2.31269 -7.26024,-6.5673 z"
         style="fill:#9d8b7f;fill-opacity:1;fill-rule:evenodd;stroke:none;stroke-width:1px;stroke-linecap:butt;stroke-linejoin:miter;stroke-opacity:1"
         sodipodi:nodetypes="cccccccccccccc" />
      <path
         id="path34037"
         d="M 497.4575,931.36124 C 443.67438,892.18114 343.29815,912.03527 249.44491,916.42785 l -32.07634,49.28446 259.69128,-10.21877 c 13.52178,-0.98199 15.05033,-6.76756 25.41037,-17.73762 -0.23817,-7.01657 -8.96383,-132.58631 -13.25505,-197.88855 l -4.76366,-0.0344 13.05704,191.46101 z"
         style="fill:#5d4d43;fill-opacity:1;fill-rule:evenodd;stroke:none;stroke-width:1px;stroke-linecap:butt;stroke-linejoin:miter;stroke-opacity:1"
         inkscape:connector-curvature="0"
         sodipodi:nodetypes="ccccccccc" />
      <path
         sodipodi:nodetypes="ccccc"
         id="path34041"
         d="m 203.61044,957.66748 c 1.48026,6.04794 7.33736,8.54751 13.75813,8.04483 l 32.07634,-49.28446 c -5.67904,-0.53249 -7.14103,-2.72302 -7.26024,-6.5673 z"
         style="fill:#856d5e;fill-opacity:1;fill-rule:evenodd;stroke:none;stroke-width:1px;stroke-linecap:butt;stroke-linejoin:miter;stroke-opacity:1"
         inkscape:connector-curvature="0" />
      <path
         sodipodi:nodetypes="sccccccs"
         inkscape:connector-curvature="0"
         id="path34039"
         d="m 399.38045,710.43423 c -45.31121,1.28105 -94.59634,11.71636 -126.04548,13.26734 -7.1141,0.36243 -7.60035,4.0662 -8.1506,7.41127 L 242.22203,909.6296 c -0.30809,3.6465 2.2659,6.8639 7.40696,6.6662 89.51274,-2.3184 186.66925,-26.04822 247.82851,15.06544 L 484.39424,739.80928 c -20.92758,-24.14267 -51.98567,-30.30881 -85.01379,-29.37505 z"
         style="fill:#ffffff;fill-opacity:1;fill-rule:evenodd;stroke:none;stroke-width:0.97069746;stroke-linecap:butt;stroke-linejoin:miter;stroke-miterlimit:4;stroke-dasharray:none;stroke-opacity:1" />
    </g>
    <g
       transform="matrix(-0.41156309,0.00893335,0.02806732,0.41197799,678.09803,227.82889)"
       id="g34043">
      <path
         style="fill:#9d8b7f;fill-opacity:1;fill-rule:evenodd;stroke:none;stroke-width:1px;stroke-linecap:butt;stroke-linejoin:miter;stroke-opacity:1"
         d="m 237.68548,910.09914 23.3406,-176.07636 -12.87793,15.6069 -3.45664,0.63667 -8.39522,16.40037 -5.18518,1.48148 -27.40741,189.62965 c 1.7245,6.51683 6.66209,7.19138 11.85185,7.4074 l 264.72811,-10.16774 c 10.12143,-6.57395 22.54121,-12.3818 17.01615,-24.17117 -81.92221,-44.93449 -167.36539,-13.47489 -251.37126,-13.20062 -3.03507,-0.38291 -8.20037,-1.35647 -8.24307,-7.54658 z"
         id="path34045"
         inkscape:connector-curvature="0"
         sodipodi:nodetypes="cccccccccccc" />
      <path
         inkscape:connector-curvature="0"
         style="fill:#5d4d43;fill-opacity:1;fill-rule:evenodd;stroke:none;stroke-width:1px;stroke-linecap:butt;stroke-linejoin:miter;stroke-opacity:1"
         d="m 246.20154,917.33542 -28.87342,47.78372 261.79115,-9.26372 c 9.62924,-2.445 15.58207,-9.81596 21.18807,-17.65162 l -3.00753,-7.35746 C 420.27382,884.66742 294.34526,916.989 246.20154,917.33542 Z"
         id="path34047"
         sodipodi:nodetypes="cccccc" />
      <path
         inkscape:connector-curvature="0"
         style="fill:#856d5e;fill-opacity:1;fill-rule:evenodd;stroke:none;stroke-width:1px;stroke-linecap:butt;stroke-linejoin:miter;stroke-opacity:1"
         d="m 203.462,957.6707 c 1.26361,5.7637 7.72931,8.13784 14.79586,7.43939 l 27.67069,-47.46437 c -4.86328,0.13531 -8.43992,-3.05008 -8.24307,-7.54658 z"
         id="path34051"
         sodipodi:nodetypes="ccccc" />
      <path
         sodipodi:nodetypes="sccccccs"
         inkscape:connector-curvature="0"
         id="path34049"
         d="m 396.35751,710.14421 c 34.67349,-1.02532 67.00868,3.11928 87.92543,29.83011 l 13.01687,190.87198 c -77.0881,-42.99972 -163.53797,-15.47548 -251.37126,-13.20058 -3.86113,-0.005 -8.40001,-2.18036 -8.24307,-7.54658 l 23.69364,-179.12661 c 1.21948,-5.07484 4.23964,-7.01771 8.15059,-7.41127 31.56904,0.20659 81.15043,-12.06629 126.8278,-13.41705 z"
         style="fill:#ffffff;fill-opacity:1;fill-rule:evenodd;stroke:none;stroke-width:1px;stroke-linecap:butt;stroke-linejoin:miter;stroke-opacity:1" />
    </g>
    <path
       style="fill:#ed2c2d;fill-opacity:1;fill-rule:evenodd;stroke:none;stroke-width:1px;stroke-linecap:butt;stroke-linejoin:miter;stroke-opacity:1"
       d="m 483.13906,611.7795 c -1.4326,10.3064 -2.76165,16.98721 -4.94635,26.49619 l 7.69113,-5.33157 5.12987,5.73662 c 1.7916,-6.69915 3.31164,-12.24453 3.84855,-20.82571 -2.6375,-3.14962 -7.3682,-4.99052 -11.7232,-6.07553 z"
       id="path34053"
       inkscape:connector-curvature="0"
       sodipodi:nodetypes="cccccc" />
    <g
       id="g34375">
      <path
         sodipodi:nodetypes="ccccccccccc"
         d="m 440.10068,553.25171 0.57322,-10.569 -26.03199,2.09007 -7.44058,48.12126 13.59753,-1.11411 2.93157,-18.72453 10.85566,-1.34357 0.95418,-10.18925 -10.1522,1.04504 1.1097,-7.82302 z"
         style="font-style:normal;font-variant:normal;font-weight:normal;font-stretch:normal;font-size:medium;line-height:100%;font-family:Passion;-inkscape-font-specification:Passion;text-align:center;letter-spacing:3.61559963px;word-spacing:0px;writing-mode:lr-tb;text-anchor:middle;fill:#2e1a4e;fill-opacity:1;stroke:none;stroke-width:1px;stroke-linecap:butt;stroke-linejoin:miter;stroke-opacity:1"
         id="path34770"
         inkscape:connector-curvature="0" />
      <path
         sodipodi:nodetypes="ccccccccccccccccc"
         d="m 491.65812,596.62267 0.27451,-46.69849 c -3.22724,-2.78174 -9.30025,-6.72609 -15.13364,-7.54263 l -6.49256,24.52634 -0.6164,-0.0329 -4.47591,-25.41348 c -4.98565,0.0859 -10.56272,0.46745 -16.71322,1.13573 l -4.89016,47.55204 13.69791,-0.52703 1.78917,-21.7844 0.77055,0.0414 2.82414,21.57595 11.29352,0.9802 6.24714,-20.14325 0.69348,0.0378 -0.41035,20.9173 c 5.4863,1.7918 8.53411,3.5836 11.14182,5.3754 z"
         style="font-style:normal;font-variant:normal;font-weight:normal;font-stretch:normal;font-size:medium;line-height:100%;font-family:Passion;-inkscape-font-specification:Passion;text-align:center;letter-spacing:3.61559963px;word-spacing:0px;writing-mode:lr-tb;text-anchor:middle;fill:#2e1a4e;fill-opacity:1;stroke:none;stroke-width:1px;stroke-linecap:butt;stroke-linejoin:miter;stroke-opacity:1"
         id="path34772"
         inkscape:connector-curvature="0" />
      <path
         sodipodi:nodetypes="sccssccssssccssssccss"
         d="m 541.96542,573.06544 c 0,-5.57634 -4.1681,-9.37297 -6.42167,-9.41141 l 0,-0.47079 c 3.25525,-1.7142 5.72653,-4.61751 5.63878,-9.63773 -0.14935,-8.53956 -5.66179,-12.14615 -14.02012,-11.19089 -6.30953,0.72112 -13.28766,4.05042 -18.71127,7.28132 l 0,47.65634 c 6.10279,-3.46346 11.86281,-5.68103 18.2457,-7.41003 11.70445,-3.17053 15.26858,-8.10868 15.26858,-16.81681 z m -13.42967,1.299 c 0.0803,3.08123 -1.17248,5.97137 -4.74571,6.95676 l -2.47011,0.68118 -0.16178,-11.67144 2.4701,-0.98459 c 2.90689,-1.15867 4.79772,0.79216 4.9075,5.01809 z m -0.96681,-18.38513 c 0.12379,4.02763 -1.44385,5.95867 -3.71417,6.54209 l -2.69662,0.69298 0,-10.46696 2.1716,-0.9846 c 2.23892,-1.01512 4.09866,-0.35837 4.23919,4.21649 z"
         style="font-style:normal;font-variant:normal;font-weight:normal;font-stretch:normal;font-size:medium;line-height:100%;font-family:Passion;-inkscape-font-specification:Passion;text-align:center;letter-spacing:3.61559963px;word-spacing:0px;writing-mode:lr-tb;text-anchor:middle;fill:#2e1a4e;fill-opacity:1;stroke:none;stroke-width:1px;stroke-linecap:butt;stroke-linejoin:miter;stroke-opacity:1"
         id="path34774"
         inkscape:connector-curvature="0" />
      <path
         sodipodi:nodetypes="sscccccsssssssss"
         d="m 566.80022,542.16363 c -13.08008,-0.97353 -18.61718,4.63423 -16.90047,25.19822 1.30929,15.68357 8.14021,22.05608 21.30685,21.53453 6.76992,4.36504 13.94167,6.60458 20.71478,6.73357 l -1.31447,-6.55641 c -3.63321,-0.39381 -6.88462,-1.54323 -9.49356,-3.96349 l -0.0255,-0.30754 c 5.33841,-4.53099 6.56793,-8.59764 5.88796,-19.59835 -0.85221,-13.78786 -6.5063,-22.02303 -20.17547,-23.04053 z m 0.36098,8.89115 c 4.92789,-0.1952 6.24852,3.65573 7.0059,12.72759 l 0.20543,2.46023 c 0.44097,5.28295 -0.10167,10.75115 -4.56753,10.92805 -4.77388,0.1891 -6.04785,-4.83166 -6.57791,-11.18083 l -0.15411,-1.84504 c -0.73807,-8.84124 -0.53164,-12.90699 4.08822,-13.09 z"
         style="font-style:normal;font-variant:normal;font-weight:normal;font-stretch:normal;font-size:medium;line-height:100%;font-family:Passion;-inkscape-font-specification:Passion;text-align:center;letter-spacing:3.61559963px;word-spacing:0px;writing-mode:lr-tb;text-anchor:middle;fill:#2e1a4e;fill-opacity:1;stroke:none;stroke-width:1px;stroke-linecap:butt;stroke-linejoin:miter;stroke-opacity:1"
         id="path34776"
         inkscape:connector-curvature="0" />
    </g>
    <path
       sodipodi:nodetypes="cccc"
       inkscape:connector-curvature="0"
       id="path34535"
       d="m 398.78118,538.90932 -11.46785,69.31708 12.75252,-69.34981 z"
       style="fill:#ffffff;fill-opacity:1;fill-rule:evenodd;stroke:none;stroke-width:1px;stroke-linecap:butt;stroke-linejoin:miter;stroke-opacity:1" />
    <path
       sodipodi:nodetypes="cccc"
       inkscape:connector-curvature="0"
       id="path34537"
       d="m 597.10692,538.92123 1.41308,0.14501 13.69336,68.59519 z"
       style="fill:#ffffff;fill-opacity:1;fill-rule:evenodd;stroke:none;stroke-width:1px;stroke-linecap:butt;stroke-linejoin:miter;stroke-opacity:1" />
    <path
       sodipodi:nodetypes="ccc"
       inkscape:connector-curvature="0"
       id="path34539"
       d="m 481.04838,611.62612 -37.82969,-1.32156 c 17.62209,-2.46634 26.16598,-0.7191 37.82969,1.32156 z"
       style="fill:#2e1a4e;fill-opacity:1;fill-rule:evenodd;stroke:none;stroke-width:1px;stroke-linecap:butt;stroke-linejoin:miter;stroke-opacity:1" />
    <path
       sodipodi:nodetypes="cccc"
       style="fill:#ffffff;fill-opacity:1;fill-rule:evenodd;stroke:none;stroke-width:1px;stroke-linecap:butt;stroke-linejoin:miter;stroke-opacity:1"
       d="m 393.09771,545.80887 -12.16835,62.56703 13.85622,-63.06552 z"
       id="path34541"
       inkscape:connector-curvature="0" />
    <path
       sodipodi:nodetypes="cccc"
       style="fill:#ffffff;fill-opacity:1;fill-rule:evenodd;stroke:none;stroke-width:1px;stroke-linecap:butt;stroke-linejoin:miter;stroke-opacity:1"
       d="m 602.35515,545.78574 1.92885,0.77131 13.546,64.40829 z"
       id="path34543"
       inkscape:connector-curvature="0" />
  </g>
</svg>
