<?xml version="1.0" encoding="UTF-8" standalone="no"?>
<!-- Created with Inkscape (http://www.inkscape.org/) -->

<svg
   id="svg2"
   version="1.1"
   inkscape:version="1.4 (e7c3feb100, 2024-10-09)"
   width="672"
   height="672"
   viewBox="0 0 672 672"
   sodipodi:docname="FMBQ-logo-no-text.svg"
   inkscape:export-xdpi="25.714285"
   inkscape:export-ydpi="25.714285"
   xmlns:inkscape="http://www.inkscape.org/namespaces/inkscape"
   xmlns:sodipodi="http://sodipodi.sourceforge.net/DTD/sodipodi-0.dtd"
   xmlns="http://www.w3.org/2000/svg"
   xmlns:svg="http://www.w3.org/2000/svg"
   xmlns:rdf="http://www.w3.org/1999/02/22-rdf-syntax-ns#"
   xmlns:cc="http://creativecommons.org/ns#"
   xmlns:dc="http://purl.org/dc/elements/1.1/">
  <metadata
     id="metadata8">
    <rdf:RDF>
      <cc:Work
         rdf:about="">
        <dc:format>image/svg+xml</dc:format>
        <dc:type
           rdf:resource="http://purl.org/dc/dcmitype/StillImage" />
      </cc:Work>
    </rdf:RDF>
  </metadata>
  <defs
     id="defs6" />
  <sodipodi:namedview
     pagecolor="#ffffff"
     bordercolor="#666666"
     borderopacity="1"
     objecttolerance="10"
     gridtolerance="10"
     guidetolerance="10"
     inkscape:pageopacity="0"
     inkscape:pageshadow="2"
     inkscape:window-width="2048"
     inkscape:window-height="1208"
     id="namedview4"
     showgrid="false"
     inkscape:snap-bbox="true"
     inkscape:bbox-paths="true"
     inkscape:bbox-nodes="true"
     inkscape:object-paths="true"
     inkscape:object-nodes="true"
     inkscape:zoom="0.61889637"
     inkscape:cx="102.60199"
     inkscape:cy="409.60008"
     inkscape:window-x="0"
     inkscape:window-y="0"
     inkscape:window-maximized="1"
     inkscape:current-layer="svg2"
     borderlayer="true"
     fit-margin-top="0"
     fit-margin-left="0"
     fit-margin-right="0"
     fit-margin-bottom="0"
     inkscape:snap-global="false"
     showguides="true"
     inkscape:guide-bbox="true"
     inkscape:showpageshadow="0"
     inkscape:pagecheckerboard="0"
     inkscape:deskcolor="#505050">
    <inkscape:grid
       type="xygrid"
       id="grid32339"
       originx="-184"
       originy="-177.64262"
       spacingy="1"
       spacingx="1"
       units="px" />
  </sodipodi:namedview>
  <path
     style="color:#000000;font-style:normal;font-variant:normal;font-weight:normal;font-stretch:normal;font-size:medium;line-height:normal;font-family:sans-serif;text-indent:0;text-align:start;text-decoration:none;text-decoration-line:none;text-decoration-style:solid;text-decoration-color:#000000;letter-spacing:normal;word-spacing:normal;text-transform:none;writing-mode:lr-tb;direction:ltr;baseline-shift:baseline;text-anchor:start;white-space:normal;clip-rule:nonzero;display:inline;overflow:visible;visibility:visible;opacity:1;isolation:auto;mix-blend-mode:normal;color-interpolation:sRGB;color-interpolation-filters:linearRGB;solid-color:#000000;solid-opacity:1;fill:#2e1a4e;fill-opacity:1;fill-rule:nonzero;stroke:none;stroke-width:24.5615;stroke-linecap:butt;stroke-linejoin:miter;stroke-miterlimit:4;stroke-dasharray:none;stroke-dashoffset:0;stroke-opacity:1;color-rendering:auto;image-rendering:auto;shape-rendering:auto;text-rendering:auto;enable-background:accumulate"
     d="m 334.89399,4.3212835 -7.90625,6.7753995 c 0,0 -23.47657,20.10502 -46.875,50.21484 C 262.78388,83.610843 244.9403,111.60735 236.84321,142.33105 230.50264,130.2336 223.18094,119.17853 215.96626,109.46582 196.67484,83.494903 177.23969,66.598633 177.2397,66.598633 l -7.99805,-6.96094 -8.05274,6.89649 c 0,0 -78.152349,64.113447 -78.152349,143.921867 V 486.62011 A 577.79999,89.099998 0 0 1 107.59906,484.9248 V 210.45605 c 0,-51.42278 44.72312,-100.56334 61.66017,-117.458977 6.66535,6.53389 15.90845,16.196467 26.99023,31.115227 17.63874,23.74602 34.50781,55.48397 34.50781,86.34375 v 268.60547 a 577.79999,89.099998 0 0 1 26.16211,-0.61719 V 175.48925 c 0,-34.04722 20.81465,-71.08894 42.58789,-99.107417 14.03265,-18.05764 27.40343,-31.51394 35.58399,-39.29492 8.5346,7.88975 22.69531,21.70575 37.52344,40.10156 22.78386,28.265727 44.47656,65.423167 44.47656,98.300777 V 478.4541 a 577.79999,89.099998 0 0 1 26.16211,0.60937 V 210.45605 c 0,-30.85977 16.86901,-62.59773 34.50781,-86.34375 11.08182,-14.91876 20.32485,-24.581337 26.99023,-31.115227 16.93699,16.895637 61.66016,66.036177 61.66016,117.458977 v 274.39258 a 577.79999,89.099998 0 0 1 24.5625,1.83008 V 210.45605 c 0,-79.80839 -78.15234,-143.921867 -78.15234,-143.921867 l -8.05274,-6.89649 -7.99805,6.96094 c 0,0 -19.43507,16.89627 -38.72656,42.867187 -7.28937,9.81322 -14.68673,20.99775 -21.07226,33.24218 -8.46716,-30.50756 -27.14483,-58.491657 -45.23438,-80.933587 -24.41171,-30.28523 -48.86719,-50.76367 -48.86719,-50.76367 z"
     id="path34555"
     inkscape:connector-curvature="0" />
  <path
     style="opacity:1;fill:#4c40a1;fill-opacity:1;stroke:none;stroke-width:2;stroke-linecap:butt;stroke-linejoin:miter;stroke-miterlimit:4;stroke-dasharray:none;stroke-dashoffset:0;stroke-opacity:1"
     d="m 169.1772,75.862303 c 0,0 -73.859389,63.262857 -73.859389,134.593747 V 485.77246 A 577.79999,89.099998 0 0 1 243.03852,478.7041 V 210.45605 c 0,-70.31903 -73.86132,-134.593747 -73.86132,-134.593747 z"
     id="path34007"
     inkscape:connector-curvature="0" />
  <path
     style="opacity:1;fill:#2e1a4e;fill-opacity:1;stroke:none;stroke-width:2;stroke-linecap:butt;stroke-linejoin:round;stroke-miterlimit:4;stroke-dasharray:none;stroke-dashoffset:0;stroke-opacity:1"
     d="m 169.17915,129.5166 c -0.10149,0.11188 -36.92188,40.51597 -36.92188,80.93945 v 272.84961 a 577.79999,89.099998 0 0 1 36.92188,-1.89258 z"
     id="path34023"
     inkscape:connector-curvature="0" />
  <path
     style="opacity:1;fill:#034c24;fill-opacity:1;stroke:none;stroke-width:2;stroke-linecap:butt;stroke-linejoin:round;stroke-miterlimit:4;stroke-dasharray:none;stroke-dashoffset:0;stroke-opacity:1"
     d="m 170.71235,129.5166 v 351.81836 a 577.79999,89.099998 0 0 1 36.92188,-1.47266 V 210.45605 c 0,-40.42348 -36.82038,-80.82757 -36.92188,-80.93945 z"
     id="path34025"
     inkscape:connector-curvature="0" />
  <path
     style="opacity:1;fill:#4c40a1;fill-opacity:1;stroke:none;stroke-width:5.32785;stroke-linecap:butt;stroke-linejoin:miter;stroke-miterlimit:4;stroke-dasharray:none;stroke-dashoffset:0;stroke-opacity:1"
     d="m 334.98188,20.420893 c 0,0 -90.34375,77.44512 -90.34375,155.068357 V 478.6748 a 577.79999,89.099998 0 0 1 92.36719,-1.1875 577.79999,89.099998 0 0 1 92.36719,1.25391 V 175.48925 c 0,-75.932617 -94.39063,-155.068357 -94.39063,-155.068357 z"
     id="path34003"
     inkscape:connector-curvature="0" />
  <path
     style="opacity:1;fill:#f2da30;fill-opacity:1;stroke:none;stroke-width:5.32785;stroke-linecap:butt;stroke-linejoin:miter;stroke-miterlimit:4;stroke-dasharray:none;stroke-dashoffset:0;stroke-opacity:1"
     d="m 335.70259,63.936523 c 0,0 -60.70508,64.274847 -60.70508,111.318357 v 302.85156 a 577.79999,89.099998 0 0 1 62.00781,-0.61914 577.79999,89.099998 0 0 1 59.40234,0.48438 v -302.7168 c 0,-47.04351 -60.70507,-111.318357 -60.70507,-111.318357 z"
     id="path34009"
     inkscape:connector-curvature="0" />
  <path
     style="opacity:1;fill:#4c40a1;fill-opacity:1;stroke:none;stroke-width:2;stroke-linecap:butt;stroke-linejoin:miter;stroke-miterlimit:4;stroke-dasharray:none;stroke-dashoffset:0;stroke-opacity:1"
     d="m 504.83344,75.862303 c 0,0 -73.86132,64.274717 -73.86132,134.593747 v 268.32227 a 577.79999,89.099998 0 0 1 147.7207,6.98437 V 210.45605 c 0,-71.33089 -73.85937,-134.593747 -73.85938,-134.593747 z"
     id="path34005"
     inkscape:connector-curvature="0" />
  <path
     style="opacity:1;fill:#2e1a4e;fill-opacity:1;stroke:none;stroke-width:2;stroke-linecap:butt;stroke-linejoin:round;stroke-miterlimit:4;stroke-dasharray:none;stroke-dashoffset:0;stroke-opacity:1"
     d="m 504.83149,129.5166 v 351.83593 a 577.79999,89.099998 0 0 1 36.92188,2.02735 V 210.45605 c 0,-40.42348 -36.82039,-80.82757 -36.92188,-80.93945 z"
     id="path34017"
     inkscape:connector-curvature="0" />
  <path
     sodipodi:nodetypes="cccccc"
     inkscape:connector-curvature="0"
     id="path34027"
     d="m 169.19606,129.49674 c 0,0 -34.252,37.55012 -36.77916,76.48368 14.98427,13.07362 30.20317,22.64412 37.42939,51.23335 7.91211,-21.40025 17.66525,-37.92358 36.26129,-48.64002 -1.10947,-39.84267 -36.91155,-79.07701 -36.91155,-79.07701 z"
     style="fill:#ed2c2d;fill-opacity:1;fill-rule:evenodd;stroke:none;stroke-width:2;stroke-linecap:round;stroke-linejoin:round;stroke-miterlimit:4;stroke-dasharray:none;stroke-opacity:1" />
  <path
     style="opacity:1;fill:#034c22;fill-opacity:1;stroke:none;stroke-width:2;stroke-linecap:butt;stroke-linejoin:round;stroke-miterlimit:4;stroke-dasharray:none;stroke-dashoffset:0;stroke-opacity:1"
     d="m 503.29829,129.5166 c -0.10149,0.11188 -36.92188,40.51597 -36.92188,80.93945 v 269.38086 a 577.79999,89.099998 0 0 1 36.92188,1.45508 z"
     id="path34019"
     inkscape:connector-curvature="0" />
  <path
     style="fill:#ed2c2d;fill-opacity:1;fill-rule:evenodd;stroke:none;stroke-width:2;stroke-linecap:round;stroke-linejoin:round;stroke-miterlimit:4;stroke-dasharray:none;stroke-opacity:1"
     d="m 504.81458,129.49674 c 0,0 34.25204,37.55012 36.7792,76.48368 -14.98426,13.07362 -30.2032,22.64412 -37.42944,51.23335 -7.9121,-21.40025 -17.66519,-37.92358 -36.26129,-48.64002 1.1095,-39.84267 36.91153,-79.07701 36.91153,-79.07701 z"
     id="path34021"
     inkscape:connector-curvature="0"
     sodipodi:nodetypes="ccccc" />
  <path
     style="opacity:1;fill:#ed2c2d;fill-opacity:1;stroke:none;stroke-width:5.32785;stroke-linecap:butt;stroke-linejoin:miter;stroke-miterlimit:4;stroke-dasharray:none;stroke-dashoffset:0;stroke-opacity:1"
     d="m 335.70252,63.936603 c 0,0 -27.9643,29.62671 -45.9325,63.369377 l 0.112,0.54018 c 0,0 16.67936,17.96402 16.67936,69.72605 v 3.90761 h 58.14819 v -3.90761 c 0,-29.06959 2.88264,-49.48102 16.24676,-71.52354 C 362.97162,92.831773 335.70394,63.936603 335.70394,63.936603 Z m -5.4e-4,0 -0.99764,-40.47916"
     id="path34011"
     inkscape:connector-curvature="0"
     sodipodi:nodetypes="cccsccsccccc" />
  <path
     style="opacity:1;fill:#2e1a4e;fill-opacity:1;stroke:none;stroke-width:5.32785;stroke-linecap:butt;stroke-linejoin:miter;stroke-miterlimit:4;stroke-dasharray:none;stroke-dashoffset:0;stroke-opacity:1"
     d="m 335.71626,104.41503 c 0,0 -30.35938,30.36036 -30.35938,70.83985 v 302.4043 a 577.79999,89.099998 0 0 1 31.64844,-0.17188 577.79999,89.099998 0 0 1 29.07031,0.22461 V 175.25488 c 0,-40.47949 -30.35937,-70.83985 -30.35937,-70.83985 z"
     id="path34013"
     inkscape:connector-curvature="0" />
  <path
     style="color:#000000;font-style:normal;font-variant:normal;font-weight:normal;font-stretch:normal;font-size:medium;line-height:normal;font-family:sans-serif;text-indent:0;text-align:start;text-decoration:none;text-decoration-line:none;text-decoration-style:solid;text-decoration-color:#000000;letter-spacing:normal;word-spacing:normal;text-transform:none;writing-mode:lr-tb;direction:ltr;baseline-shift:baseline;text-anchor:start;white-space:normal;clip-rule:nonzero;display:inline;overflow:visible;visibility:visible;opacity:1;isolation:auto;mix-blend-mode:normal;color-interpolation:sRGB;color-interpolation-filters:linearRGB;solid-color:#000000;solid-opacity:1;fill:#9d8b7f;fill-opacity:1;fill-rule:nonzero;stroke:none;stroke-width:2;stroke-linecap:butt;stroke-linejoin:round;stroke-miterlimit:4;stroke-dasharray:none;stroke-dashoffset:0;stroke-opacity:1;color-rendering:auto;image-rendering:auto;shape-rendering:auto;text-rendering:auto;enable-background:accumulate"
     d="m 334.96235,16.928713 -1.71484,1.4707 c 0,0 -22.77892,19.52152 -45.54102,48.8125 -22.76218,29.29098 -45.73242,68.432227 -45.73242,108.277337 v 6.39844 c -6.39662,-25.21092 -20.10126,-48.34455 -33.72656,-66.6875 -17.97082,-24.193017 -35.80293,-40.008587 -37.08008,-41.130857 -0.14704,-0.16669 -0.31435,-0.31432 -0.49805,-0.43945 l -1.47656,-1.28516 -1.50195,1.2832 c -0.17596,0.1178 -0.33726,0.25613 -0.48047,0.41211 -2.5151,2.15548 -74.558609,64.522397 -74.558609,136.417967 v 275.49805 c 1.77202,-0.12378 3.54809,-0.24618 5.32813,-0.36719 V 210.458 c 0,-0.0978 0.004,-0.19521 0.004,-0.29297 h 31.613289 c -4.1e-4,0.0976 -0.004,0.19532 -0.004,0.29297 v 272.98438 c 1.77316,-0.0925 3.54922,-0.18362 5.32813,-0.27344 V 211.59277 c 13.02708,10.97337 25.02872,20.34355 31.59179,43.49219 V 481.5498 c 2.28298,-0.11939 4.57079,-0.23658 6.86328,-0.35156 V 255.43457 c 7.24281,-18.79858 16.03338,-33.14659 31.5918,-43.00391 V 479.9541 c 1.77416,-0.0625 3.55022,-0.12369 5.32813,-0.1836 V 211.10839 h 30.07812 v 267.64649 c 2.30752,-0.0458 4.61681,-0.0894 6.92774,-0.13086 V 175.48925 c 0,-37.77813 22.20174,-76.170487 44.61132,-105.007807 16.9603,-21.82501 33.15903,-37.43336 40.20313,-43.89258 l 0.89648,36.3418 c -0.4932,0.52908 -1.36304,1.4771 -3.21484,3.56641 -5.1325,5.75071 -15.61512,17.99857 -26.44922,33.667957 -0.064,0.0924 -0.12731,0.18081 -0.19141,0.27344 -0.053,0.0763 -0.1054,0.15602 -0.1582,0.23242 -0.7508,1.09046 -1.49805,2.18685 -2.24805,3.30664 -0.8117,1.20688 -1.61988,2.43202 -2.42578,3.66797 -0.1484,0.22884 -0.29721,0.44984 -0.44531,0.67969 -13.39702,20.67155 -25.54685,45.10736 -25.54688,66.92969 v 302.90039 c 1.77373,-0.0345 3.54849,-0.0677 5.32422,-0.0996 V 175.25489 c 0,-13.15156 5.14037,-28.11851 12.41993,-42.64649 h 0.004 c 1.4655,2.28863 3.50719,6.00315 5.65039,11.63672 2.7122,7.1298 5.4514,17.18019 6.9668,30.73047 -4e-4,0.0938 -0.01,0.18541 -0.01,0.2793 v 302.41992 c 1.77965,-0.011 3.55962,-0.0208 5.33985,-0.0293 l 0.10742,-290.02734 -0.10352,-12.90039 c 0.2322,-34.89007 22.8484,-61.03601 27.6836,-66.27149 4.6713,5.0578 25.93403,29.63307 27.58203,62.75196 l -0.0469,5.23633 h 0.16016 v 27.70898 31.01953 242.52734 c 1.77644,0.0124 3.55251,0.0261 5.32813,0.041 V 175.25487 c 0,-1.41482 -0.0429,-2.81404 -0.11133,-4.20313 1.6347,-14.30522 5.1583,-26.67367 12.1914,-39.4414 7.5463,14.83889 12.92383,30.19161 12.92383,43.64453 v 302.66992 c 1.77648,0.0352 3.55189,0.0716 5.32617,0.10938 v -302.7793 c 0,-22.09962 -12.46089,-46.87485 -26.05859,-67.71094 -0.2256,-0.34742 -0.4516,-0.68621 -0.67774,-1.03125 -0.72978,-1.10843 -1.45985,-2.20494 -2.19335,-3.28906 -0.5884,-0.87285 -1.17498,-1.7371 -1.76368,-2.5918 -0.044,-0.0634 -0.087,-0.13002 -0.13086,-0.19336 -0.1329,-0.19219 -0.26553,-0.37511 -0.39843,-0.566397 -11.4182,-16.47559 -22.52421,-29.2721 -27.22071,-34.48438 -0.099,-0.11009 -0.26412,-0.29914 -0.35742,-0.40234 -0.029,-0.0324 -0.0159,-0.0189 -0.0449,-0.0508 -0.4357,-0.4814 -0.58306,-0.63709 -0.88086,-0.96094 -0.434,-0.47421 -0.81365,-0.89384 -1.00195,-1.09571 l -0.90808,-36.76559 c 7.0259,6.24588 24.47513,22.46852 42.66993,45.04102 23.4212,29.056437 46.6055,67.473457 46.60546,104.335927 v 303.18946 c 2.31263,0.0512 4.62322,0.10461 6.93165,0.16015 V 211.10839 h 30.07226 v 268.62305 c 1.7782,0.069 3.55427,0.13932 5.32813,0.21094 V 212.42675 c 15.5618,9.85743 24.35405,24.20705 31.59765,43.00782 v 225.75195 c 2.28938,0.0883 4.57523,0.17883 6.85742,0.27148 V 255.0791 c 6.5646,-23.14826 18.56906,-32.51928 31.59766,-43.49414 v 271.64648 c 1.7779,0.0983 3.55266,0.19788 5.32422,0.29883 V 210.458 210.16503 h 31.60742 c 3e-4,0.0978 0,0.19519 0,0.29297 v 275.10742 c 1.78172,0.13076 3.55909,0.26292 5.33203,0.39649 V 210.458 c 0,-71.82764 -71.90267,-134.138907 -74.54687,-136.406247 -0.15114,-0.16826 -0.32311,-0.31658 -0.51172,-0.4414 l -1.47656,-1.26563 -1.5,1.30274 c -0.16938,0.11646 -0.3247,0.25212 -0.46289,0.40429 -1.1847,1.04021 -19.07546,16.88619 -37.09766,41.148437 -13.6268,18.34484 -27.33031,41.48136 -33.72461,66.69531 v -6.40625 c 0,-39.07014 -24.01086,-78.185167 -47.78516,-107.679677 -23.7743,-29.49452 -47.55859,-49.42969 -47.55859,-49.42969 z m 0.74024,51.03906 c 0.6592,0.71203 1.90438,2.06743 3.61328,4.00391 0.257,0.29114 0.59369,0.68468 0.87109,1.00195 0.633,0.72786 1.16597,1.32629 1.88867,2.17383 1.4316,1.6788 3.03932,3.6019 4.76172,5.71093 0.2092,0.25578 0.43123,0.53061 0.64453,0.79297 1.298,1.59865 2.66493,3.31685 4.07813,5.12305 0.5012,0.64089 0.99642,1.2748 1.51172,1.94336 0.6405,0.83041 1.29314,1.68609 1.94921,2.55273 0.9652,1.27601 1.94832,2.59696 2.94922,3.95899 6.6233,9.011727 13.7164,19.572167 19.92578,30.855467 -5.5542,9.44842 -9.25368,18.69234 -11.67578,28.42968 -7.3981,-30.89171 -28.62129,-51.98242 -28.62109,-51.98242 l -1.88281,-1.88476 -1.88282,1.88476 c 0,0 -21.92641,21.77595 -28.97851,53.49024 -1.2692,-5.33132 -2.69918,-9.87786 -4.14258,-13.67188 -3.5588,-9.35522 -6.72847,-13.5162 -7.91015,-14.97266 0.02,-0.0369 0.0386,-0.0744 0.0586,-0.11132 4.9362,-9.10878 10.48579,-17.79011 15.93359,-25.58594 0.022,-0.0312 0.0435,-0.0626 0.0645,-0.0937 1.0254,-1.46622 2.04734,-2.896657 3.06054,-4.296877 0.084,-0.11569 0.16846,-0.23642 0.25196,-0.35156 0.3658,-0.5042 0.72263,-0.9777 1.08593,-1.47265 1.0565,-1.44026 2.0902,-2.82697 3.10743,-4.17188 0.59219,-0.78208 1.18787,-1.56764 1.76757,-2.32031 0.5974,-0.77666 1.16935,-1.50438 1.74805,-2.24414 1.3346,-1.7044 2.62903,-3.33601 3.86133,-4.85547 0.2037,-0.25094 0.41133,-0.50889 0.61133,-0.75391 3.1181,-3.82371 5.7329,-6.86622 7.8125,-9.23437 1.654,-1.87165 2.89191,-3.22112 3.53711,-3.91797 z m -169.18946,14.01953 v 46.535157 c -0.29334,0.33192 -0.3711,0.40931 -0.97851,1.12304 -0.15627,0.18362 -0.38521,0.46359 -0.56055,0.67188 -4.60092,5.3334 -19.02462,23.06846 -28.00781,45.70508 -0.0518,0.12853 -0.10485,0.25594 -0.15625,0.38476 -0.19642,0.49972 -0.38551,1.00372 -0.57617,1.50781 -3.27597,8.52788 -5.70113,17.6346 -6.41797,26.92383 H 98.140081 C 101.34697,145.91609 153.62609,93.955713 166.51313,81.987303 Z m 340.98242,0.002 h 0.004 c 12.892,11.9735 65.16244,63.931217 68.36914,122.849607 h -31.66992 c -0.7112,-9.21067 -3.10494,-18.24146 -6.33984,-26.70703 -0.2355,-0.62615 -0.47045,-1.25166 -0.71485,-1.87109 0,-0.01 -0.01,-0.0195 -0.0117,-0.0293 -8.8875,-22.50966 -23.22438,-40.24373 -27.99218,-45.79102 -0.2112,-0.25139 -0.47751,-0.57791 -0.66211,-0.79492 -0.6106,-0.71743 -0.68973,-0.79782 -0.98243,-1.1289 z m -5.32617,0.0137 h 0.004 l -0.01,45.101567 c -0.31957,0.14915 -0.6064,0.36026 -0.84375,0.62109 0.1102,-0.12174 -0.63172,0.70006 -1.66992,1.91992 -1.0381,1.2199 -2.50722,2.98833 -4.26562,5.23828 -3.5167,4.49988 -8.18423,10.90532 -12.86133,18.60157 -8.659,14.24839 -17.40345,32.92427 -18.65625,52.29492 h -30.10742 c 1.5419,-32.56355 18.82379,-63.90639 36.27539,-87.40039 13.8414,-18.633927 26.57966,-31.191597 32.13476,-36.376957 z m -330.32812,0.004 c 5.55814,5.18868 18.29222,17.74555 32.1289,36.373047 17.45156,23.49402 34.73898,54.83682 36.28125,87.40039 h -30.11328 c -1.25215,-19.37065 -9.99145,-38.04653 -18.65039,-52.29492 -4.67711,-7.69625 -9.35046,-14.10169 -12.86719,-18.60157 -1.75835,-2.24995 -3.22746,-4.01838 -4.26562,-5.23828 -1.03816,-1.21986 -1.78029,-2.04155 -1.66992,-1.91992 -0.23737,-0.26084 -0.52416,-0.47195 -0.84375,-0.62109 z m -2.66211,50.570307 c 16.00079,19.84841 31.55933,44.52203 35.49878,73.74633 -2.95578,1.94885 -4.83623,3.4192 -7.13955,5.1055 -10.71477,8.10409 -18.2137,18.59612 -24.16201,30.99778 v -0.85742 c -1.48138,3.14087 -2.67412,6.12325 -3.52734,8.75977 -0.9397,-3.37784 -2.01489,-6.62842 -3.33594,-9.82227 v 0.80859 c -7.34746,-15.85267 -17.79281,-24.89136 -28.24215,-33.82829 -1.04788,-0.77577 -2.09668,-1.55184 -3.21874,-2.34375 0.15638,-0.98545 0.32613,-1.96208 0.5039,-2.93555 2.20674,-18.40945 11.07569,-36.04262 19.27344,-48.94922 4.36543,-7.16505 9.20947,-14.02994 14.34961,-20.68164 z m 335.30859,0 c 2.44046,3.15813 4.8022,6.37136 7.08985,9.63477 1.10454,1.48944 2.2715,3.09797 3.50976,4.88281 0.7594,1.09763 1.52459,2.21466 2.30859,3.40235 0.7496,1.13404 1.50679,2.30159 2.27149,3.51953 0.1391,0.22148 0.27867,0.44996 0.41797,0.67382 0.8526,1.37147 1.7092,2.77669 2.5625,4.24219 0,0.003 -4.8e-4,0.006 0.01,0.01 0.2583,0.44364 0.51419,0.90178 0.77149,1.35351 0.2414,0.42313 0.48471,0.84402 0.72461,1.27344 0.3362,0.60277 0.66895,1.21621 1.00195,1.83203 0.1376,0.25407 0.27521,0.50764 0.41211,0.76367 0.3827,0.71734 0.76424,1.44213 1.14062,2.17579 0.06,0.1163 0.12009,0.23294 0.17969,0.3496 5.8035,11.38457 10.72677,24.65228 11.85547,38.22657 -0.0487,0.0419 -0.0978,0.0831 -0.14648,0.125 0.005,0.0341 0.0122,0.0675 0.0176,0.10156 -0.43853,0.32584 -0.83785,0.64498 -1.26563,0.96875 -10.97702,9.40296 -22.12547,18.53711 -29.84961,35.20312 v -0.55273 c -1.39523,3.20281 -2.52995,6.44958 -3.45898,9.78906 -0.82599,-2.55236 -1.97387,-5.43358 -3.40235,-8.47656 v 0.36328 c -6.21016,-12.95147 -14.10934,-23.82111 -25.59605,-32.06361 -2.03733,-1.51388 -3.62477,-2.86304 -6.03572,-4.11356 3.93945,-29.22429 19.48059,-53.83575 35.48138,-73.68416 z"
     id="path34274"
     inkscape:connector-curvature="0"
     sodipodi:nodetypes="ccsscscccccsccsccsccccccccccccccsscccccccccsccsccccsccccccccccccsccsccsccccccccccccsscccccccccccccccccsccscccccscsscccccccccccccccccccccccccccccccccccscccccccccccccccccccscccssccsccsccssccccccccccccccccccccccccccccccccccccccccccccccc" />
  <path
     style="opacity:1;fill:#332163;fill-opacity:1;stroke:none;stroke-width:8;stroke-linecap:butt;stroke-linejoin:miter;stroke-miterlimit:4;stroke-dasharray:none;stroke-dashoffset:0;stroke-opacity:1"
     d=""
     id="path33723"
     inkscape:connector-curvature="0" />
  <g
     id="g34611"
     transform="matrix(-0.20584677,0.00446809,0.01403811,0.20605428,427.19896,935.51341)"
     style="fill:#917c6f;fill-opacity:1" />
  <g
     id="g34684"
     transform="translate(623.79611,-479.49342)" />
  <g
     id="g34727"
     style="fill:#291a50;fill-opacity:1"
     transform="translate(-161.9039,-152.71521)" />
  <g
     transform="translate(628.6146,-846.98823)"
     id="g34571" />
  <path
     style="opacity:1;fill:#ffffff;fill-opacity:1;stroke:none;stroke-width:5.32785;stroke-linecap:butt;stroke-linejoin:round;stroke-miterlimit:4;stroke-dasharray:none;stroke-dashoffset:0;stroke-opacity:1"
     d="m 335.70063,65.200193 c 0,0 -4.09439,4.35216 -10.10742,11.53125 v 96.845697 l 9.89453,9.89454 10.34961,-10.34376 V 76.762693 c -6.02794,-7.19763 -10.13672,-11.5625 -10.13672,-11.5625 z M 274.99946,173.77246 v 20.24414 h 49.95117 l 10.34961,-10.34571 -9.90039,-9.89843 z m 70.58203,0 -9.89453,9.89843 10.3457,10.34571 h 50.375 v -20.24414 z m -10.09375,10.08593 -9.89453,9.90039 V 477.5498 a 577.79999,89.099998 0 0 1 11.41211,-0.0625 577.79999,89.099998 0 0 1 8.83203,0.0684 V 194.21 l -10.34961,-10.35157 z"
     id="path34015"
     inkscape:connector-curvature="0" />
  <path
     style="color:#000000;font-style:normal;font-variant:normal;font-weight:normal;font-stretch:normal;font-size:medium;line-height:normal;font-family:sans-serif;text-indent:0;text-align:start;text-decoration:none;text-decoration-line:none;text-decoration-style:solid;text-decoration-color:#000000;letter-spacing:normal;word-spacing:normal;text-transform:none;writing-mode:lr-tb;direction:ltr;baseline-shift:baseline;text-anchor:start;white-space:normal;clip-rule:nonzero;display:inline;overflow:visible;visibility:visible;opacity:1;isolation:auto;mix-blend-mode:normal;color-interpolation:sRGB;color-interpolation-filters:linearRGB;solid-color:#000000;solid-opacity:1;fill:#9d8b7f;fill-opacity:1;fill-rule:nonzero;stroke:none;stroke-width:5.32785;stroke-linecap:butt;stroke-linejoin:round;stroke-miterlimit:4;stroke-dasharray:none;stroke-dashoffset:0;stroke-opacity:1;color-rendering:auto;image-rendering:auto;shape-rendering:auto;text-rendering:auto;enable-background:accumulate"
     d="m 335.74165,62.536133 a 2.6641932,2.6641932 0 0 0 -1.98242,0.83789 c 0,0 -4.15223,4.4175 -10.20703,11.64648 a 2.6641932,2.6641932 0 0 0 -0.62305,1.71094 v 94.376947 h -47.92969 a 2.6641932,2.6641932 0 0 0 -2.66406,2.66407 v 20.24414 a 2.6641932,2.6641932 0 0 0 2.66406,2.66211 h 47.92969 v 280.88476 a 577.79999,89.099998 0 0 1 5.32812,-0.0293 V 194.86229 l 7.23243,-7.23438 7.68554,7.68555 v 282.22071 a 577.79999,89.099998 0 0 1 5.32617,0.041 V 196.67869 h 47.90625 a 2.6641932,2.6641932 0 0 0 2.66407,-2.66211 v -20.24414 a 2.6641932,2.6641932 0 0 0 -2.66407,-2.66407 H 348.50141 V 76.762673 a 2.6641932,2.6641932 0 0 0 -0.62109,-1.71094 c -6.0702,-7.24811 -10.24023,-11.67773 -10.24023,-11.67773 a 2.6641932,2.6641932 0 0 0 -1.89844,-0.83789 z m -0.041,6.70312 c 1.1071,1.19766 3.20121,3.46899 7.47461,8.52539 v 94.259767 l -7.6875,7.67969 -7.23047,-7.23047 V 77.733393 c 4.2574,-5.03734 6.33806,-7.29723 7.44336,-8.49414 z M 277.66354,176.43457 h 46.63282 l 7.23632,7.23632 -7.68554,7.68164 h -46.1836 z m 69.02344,0 h 47.05664 v 14.91796 H 347.1362 l -7.68164,-7.68164 z"
     id="path34318"
     inkscape:connector-curvature="0" />
  <g
     id="g34726"
     transform="matrix(2.4561519,0,0,2.4561519,-887.82499,-901.0182)">
    <g
       id="g34031"
       transform="matrix(0.41156309,0.00893335,-0.02806732,0.41197799,318.97733,227.82889)">
      <path
         style="fill:#2e1a4e;fill-opacity:1;fill-rule:evenodd;stroke:none;stroke-width:1px;stroke-linecap:butt;stroke-linejoin:miter;stroke-opacity:1"
         d="m 488.15042,752.52582 -254.49776,5.06453 c -5.39255,-0.14675 -10.26778,1.82769 -11.01672,6.75366 l -32.07856,193.03633 c -2.21247,10.42261 2.77332,21.17351 23.00042,21.75019 l 271.72931,-6.67896 c 7.33795,-2.62922 11.37003,-8.22725 16.35923,-13.82598 5.34973,4.92689 11.18087,12.02717 20.56956,13.02522 l 272.71165,-6.01779 c 13.95402,-0.51087 18.25761,-10.30872 16.07767,-21.20774 L 753.00109,752.89129 c -1.4632,-3.92482 -3.60996,-6.86482 -10.90217,-6.76615 z"
         id="path34033"
         inkscape:connector-curvature="0"
         sodipodi:nodetypes="ccccccccccccc" />
      <path
         inkscape:connector-curvature="0"
         id="path34035"
         d="m 264.78555,734.21337 -3.30407,0.60145 -13.33333,14.81481 h -2.96297 l -8.53896,15.70935 -4.95028,1.6964 -27.99224,190.74242 c 1.31623,4.7882 6.19346,8.56475 13.66487,7.93451 l 262.91509,-10.69485 c 9.37707,-0.85739 15.0764,-9.49499 21.19782,-17.23968 l -3.93813,-5.15763 c -60.0549,-39.11351 -158.29781,-21.36795 -248.09844,-16.1923 -4.68229,-0.26119 -7.26382,-2.31269 -7.26024,-6.5673 z"
         style="fill:#9d8b7f;fill-opacity:1;fill-rule:evenodd;stroke:none;stroke-width:1px;stroke-linecap:butt;stroke-linejoin:miter;stroke-opacity:1"
         sodipodi:nodetypes="cccccccccccccc" />
      <path
         id="path34037"
         d="M 497.4575,931.36124 C 443.67438,892.18114 343.29815,912.03527 249.44491,916.42785 l -32.07634,49.28446 259.69128,-10.21877 c 13.52178,-0.98199 15.05033,-6.76756 25.41037,-17.73762 -0.23817,-7.01657 -8.96383,-132.58631 -13.25505,-197.88855 l -4.76366,-0.0344 13.05704,191.46101 z"
         style="fill:#5d4d43;fill-opacity:1;fill-rule:evenodd;stroke:none;stroke-width:1px;stroke-linecap:butt;stroke-linejoin:miter;stroke-opacity:1"
         inkscape:connector-curvature="0"
         sodipodi:nodetypes="ccccccccc" />
      <path
         sodipodi:nodetypes="ccccc"
         id="path34041"
         d="m 203.61044,957.66748 c 1.48026,6.04794 7.33736,8.54751 13.75813,8.04483 l 32.07634,-49.28446 c -5.67904,-0.53249 -7.14103,-2.72302 -7.26024,-6.5673 z"
         style="fill:#856d5e;fill-opacity:1;fill-rule:evenodd;stroke:none;stroke-width:1px;stroke-linecap:butt;stroke-linejoin:miter;stroke-opacity:1"
         inkscape:connector-curvature="0" />
      <path
         sodipodi:nodetypes="sccccccs"
         inkscape:connector-curvature="0"
         id="path34039"
         d="m 399.38045,710.43423 c -45.31121,1.28105 -94.59634,11.71636 -126.04548,13.26734 -7.1141,0.36243 -7.60035,4.0662 -8.1506,7.41127 L 242.22203,909.6296 c -0.30809,3.6465 2.2659,6.8639 7.40696,6.6662 89.51274,-2.3184 186.66925,-26.04822 247.82851,15.06544 L 484.39424,739.80928 c -20.92758,-24.14267 -51.98567,-30.30881 -85.01379,-29.37505 z"
         style="fill:#ffffff;fill-opacity:1;fill-rule:evenodd;stroke:none;stroke-width:0.970697;stroke-linecap:butt;stroke-linejoin:miter;stroke-miterlimit:4;stroke-dasharray:none;stroke-opacity:1" />
    </g>
    <g
       transform="matrix(-0.41156309,0.00893335,0.02806732,0.41197799,678.09803,227.82889)"
       id="g34043">
      <path
         style="fill:#9d8b7f;fill-opacity:1;fill-rule:evenodd;stroke:none;stroke-width:1px;stroke-linecap:butt;stroke-linejoin:miter;stroke-opacity:1"
         d="m 237.68548,910.09914 23.3406,-176.07636 -12.87793,15.6069 -3.45664,0.63667 -8.39522,16.40037 -5.18518,1.48148 -27.40741,189.62965 c 1.7245,6.51683 6.66209,7.19138 11.85185,7.4074 l 264.72811,-10.16774 c 10.12143,-6.57395 22.54121,-12.3818 17.01615,-24.17117 -81.92221,-44.93449 -167.36539,-13.47489 -251.37126,-13.20062 -3.03507,-0.38291 -8.20037,-1.35647 -8.24307,-7.54658 z"
         id="path34045"
         inkscape:connector-curvature="0"
         sodipodi:nodetypes="cccccccccccc" />
      <path
         inkscape:connector-curvature="0"
         style="fill:#5d4d43;fill-opacity:1;fill-rule:evenodd;stroke:none;stroke-width:1px;stroke-linecap:butt;stroke-linejoin:miter;stroke-opacity:1"
         d="m 246.20154,917.33542 -28.87342,47.78372 261.79115,-9.26372 c 9.62924,-2.445 15.58207,-9.81596 21.18807,-17.65162 l -3.00753,-7.35746 C 420.27382,884.66742 294.34526,916.989 246.20154,917.33542 Z"
         id="path34047"
         sodipodi:nodetypes="cccccc" />
      <path
         inkscape:connector-curvature="0"
         style="fill:#856d5e;fill-opacity:1;fill-rule:evenodd;stroke:none;stroke-width:1px;stroke-linecap:butt;stroke-linejoin:miter;stroke-opacity:1"
         d="m 203.462,957.6707 c 1.26361,5.7637 7.72931,8.13784 14.79586,7.43939 l 27.67069,-47.46437 c -4.86328,0.13531 -8.43992,-3.05008 -8.24307,-7.54658 z"
         id="path34051"
         sodipodi:nodetypes="ccccc" />
      <path
         sodipodi:nodetypes="sccccccs"
         inkscape:connector-curvature="0"
         id="path34049"
         d="m 396.35751,710.14421 c 34.67349,-1.02532 67.00868,3.11928 87.92543,29.83011 l 13.01687,190.87198 c -77.0881,-42.99972 -163.53797,-15.47548 -251.37126,-13.20058 -3.86113,-0.005 -8.40001,-2.18036 -8.24307,-7.54658 l 23.69364,-179.12661 c 1.21948,-5.07484 4.23964,-7.01771 8.15059,-7.41127 31.56904,0.20659 81.15043,-12.06629 126.8278,-13.41705 z"
         style="fill:#ffffff;fill-opacity:1;fill-rule:evenodd;stroke:none;stroke-width:1px;stroke-linecap:butt;stroke-linejoin:miter;stroke-opacity:1" />
    </g>
    <path
       style="fill:#ed2c2d;fill-opacity:1;fill-rule:evenodd;stroke:none;stroke-width:1px;stroke-linecap:butt;stroke-linejoin:miter;stroke-opacity:1"
       d="m 483.13906,611.7795 c -1.4326,10.3064 -2.76165,16.98721 -4.94635,26.49619 l 7.69113,-5.33157 5.12987,5.73662 c 1.7916,-6.69915 3.31164,-12.24453 3.84855,-20.82571 -2.6375,-3.14962 -7.3682,-4.99052 -11.7232,-6.07553 z"
       id="path34053"
       inkscape:connector-curvature="0"
       sodipodi:nodetypes="cccccc" />
    <g
       id="g34375">
      <path
         sodipodi:nodetypes="ccccccccccc"
         d="m 440.10068,553.25171 0.57322,-10.569 -26.03199,2.09007 -7.44058,48.12126 13.59753,-1.11411 2.93157,-18.72453 10.85566,-1.34357 0.95418,-10.18925 -10.1522,1.04504 1.1097,-7.82302 z"
         style="font-style:normal;font-variant:normal;font-weight:normal;font-stretch:normal;font-size:medium;line-height:100%;font-family:Passion;-inkscape-font-specification:Passion;text-align:center;letter-spacing:3.6156px;word-spacing:0px;writing-mode:lr-tb;text-anchor:middle;fill:#2e1a4e;fill-opacity:1;stroke:none;stroke-width:1px;stroke-linecap:butt;stroke-linejoin:miter;stroke-opacity:1"
         id="path34770"
         inkscape:connector-curvature="0" />
      <path
         sodipodi:nodetypes="ccccccccccccccccc"
         d="m 491.65812,596.62267 0.27451,-46.69849 c -3.22724,-2.78174 -9.30025,-6.72609 -15.13364,-7.54263 l -6.49256,24.52634 -0.6164,-0.0329 -4.47591,-25.41348 c -4.98565,0.0859 -10.56272,0.46745 -16.71322,1.13573 l -4.89016,47.55204 13.69791,-0.52703 1.78917,-21.7844 0.77055,0.0414 2.82414,21.57595 11.29352,0.9802 6.24714,-20.14325 0.69348,0.0378 -0.41035,20.9173 c 5.4863,1.7918 8.53411,3.5836 11.14182,5.3754 z"
         style="font-style:normal;font-variant:normal;font-weight:normal;font-stretch:normal;font-size:medium;line-height:100%;font-family:Passion;-inkscape-font-specification:Passion;text-align:center;letter-spacing:3.6156px;word-spacing:0px;writing-mode:lr-tb;text-anchor:middle;fill:#2e1a4e;fill-opacity:1;stroke:none;stroke-width:1px;stroke-linecap:butt;stroke-linejoin:miter;stroke-opacity:1"
         id="path34772"
         inkscape:connector-curvature="0" />
      <path
         sodipodi:nodetypes="sccssccssssccssssccss"
         d="m 541.96542,573.06544 c 0,-5.57634 -4.1681,-9.37297 -6.42167,-9.41141 v -0.47079 c 3.25525,-1.7142 5.72653,-4.61751 5.63878,-9.63773 -0.14935,-8.53956 -5.66179,-12.14615 -14.02012,-11.19089 -6.30953,0.72112 -13.28766,4.05042 -18.71127,7.28132 v 47.65634 c 6.10279,-3.46346 11.86281,-5.68103 18.2457,-7.41003 11.70445,-3.17053 15.26858,-8.10868 15.26858,-16.81681 z m -13.42967,1.299 c 0.0803,3.08123 -1.17248,5.97137 -4.74571,6.95676 l -2.47011,0.68118 -0.16178,-11.67144 2.4701,-0.98459 c 2.90689,-1.15867 4.79772,0.79216 4.9075,5.01809 z m -0.96681,-18.38513 c 0.12379,4.02763 -1.44385,5.95867 -3.71417,6.54209 l -2.69662,0.69298 v -10.46696 l 2.1716,-0.9846 c 2.23892,-1.01512 4.09866,-0.35837 4.23919,4.21649 z"
         style="font-style:normal;font-variant:normal;font-weight:normal;font-stretch:normal;font-size:medium;line-height:100%;font-family:Passion;-inkscape-font-specification:Passion;text-align:center;letter-spacing:3.6156px;word-spacing:0px;writing-mode:lr-tb;text-anchor:middle;fill:#2e1a4e;fill-opacity:1;stroke:none;stroke-width:1px;stroke-linecap:butt;stroke-linejoin:miter;stroke-opacity:1"
         id="path34774"
         inkscape:connector-curvature="0" />
      <path
         sodipodi:nodetypes="sscccccsssssssss"
         d="m 566.80022,542.16363 c -13.08008,-0.97353 -18.61718,4.63423 -16.90047,25.19822 1.30929,15.68357 8.14021,22.05608 21.30685,21.53453 6.76992,4.36504 13.94167,6.60458 20.71478,6.73357 l -1.31447,-6.55641 c -3.63321,-0.39381 -6.88462,-1.54323 -9.49356,-3.96349 l -0.0255,-0.30754 c 5.33841,-4.53099 6.56793,-8.59764 5.88796,-19.59835 -0.85221,-13.78786 -6.5063,-22.02303 -20.17547,-23.04053 z m 0.36098,8.89115 c 4.92789,-0.1952 6.24852,3.65573 7.0059,12.72759 l 0.20543,2.46023 c 0.44097,5.28295 -0.10167,10.75115 -4.56753,10.92805 -4.77388,0.1891 -6.04785,-4.83166 -6.57791,-11.18083 l -0.15411,-1.84504 c -0.73807,-8.84124 -0.53164,-12.90699 4.08822,-13.09 z"
         style="font-style:normal;font-variant:normal;font-weight:normal;font-stretch:normal;font-size:medium;line-height:100%;font-family:Passion;-inkscape-font-specification:Passion;text-align:center;letter-spacing:3.6156px;word-spacing:0px;writing-mode:lr-tb;text-anchor:middle;fill:#2e1a4e;fill-opacity:1;stroke:none;stroke-width:1px;stroke-linecap:butt;stroke-linejoin:miter;stroke-opacity:1"
         id="path34776"
         inkscape:connector-curvature="0" />
    </g>
    <path
       sodipodi:nodetypes="cccc"
       inkscape:connector-curvature="0"
       id="path34535"
       d="m 398.78118,538.90932 -11.46785,69.31708 12.75252,-69.34981 z"
       style="fill:#ffffff;fill-opacity:1;fill-rule:evenodd;stroke:none;stroke-width:1px;stroke-linecap:butt;stroke-linejoin:miter;stroke-opacity:1" />
    <path
       sodipodi:nodetypes="cccc"
       inkscape:connector-curvature="0"
       id="path34537"
       d="m 597.10692,538.92123 1.41308,0.14501 13.69336,68.59519 z"
       style="fill:#ffffff;fill-opacity:1;fill-rule:evenodd;stroke:none;stroke-width:1px;stroke-linecap:butt;stroke-linejoin:miter;stroke-opacity:1" />
    <path
       sodipodi:nodetypes="ccc"
       inkscape:connector-curvature="0"
       id="path34539"
       d="m 481.04838,611.62612 -37.82969,-1.32156 c 17.62209,-2.46634 26.16598,-0.7191 37.82969,1.32156 z"
       style="fill:#2e1a4e;fill-opacity:1;fill-rule:evenodd;stroke:none;stroke-width:1px;stroke-linecap:butt;stroke-linejoin:miter;stroke-opacity:1" />
    <path
       sodipodi:nodetypes="cccc"
       style="fill:#ffffff;fill-opacity:1;fill-rule:evenodd;stroke:none;stroke-width:1px;stroke-linecap:butt;stroke-linejoin:miter;stroke-opacity:1"
       d="m 393.09771,545.80887 -12.16835,62.56703 13.85622,-63.06552 z"
       id="path34541"
       inkscape:connector-curvature="0" />
    <path
       sodipodi:nodetypes="cccc"
       style="fill:#ffffff;fill-opacity:1;fill-rule:evenodd;stroke:none;stroke-width:1px;stroke-linecap:butt;stroke-linejoin:miter;stroke-opacity:1"
       d="m 602.35515,545.78574 1.92885,0.77131 13.546,64.40829 z"
       id="path34543"
       inkscape:connector-curvature="0" />
  </g>
</svg>
