<svg viewBox="0 0 112 512"
    xmlns="http://www.w3.org/2000/svg">
    <defs>
        <pattern id="wave" width="112" height="128" patternUnits="userSpaceOnUse">
            <path d="M 0 8 a 40 40 0 0 1 40 40 v 4 a 16 16 0 0 0 32 0 v -4 a 40 40 0 0 1 40 -40" stroke="green" fill="transparent" stroke-width="16" stroke-linecap="butt" />
            <path d="M 0 24 a 32 32 0 0 1 32 32 v 4 a 24 24 0 0 0 48 0 v -4 a 32 32 0 0 1 32 -32" stroke="orange" fill="transparent" stroke-width="16" stroke-linecap="butt" />
            <path d="M 0 36 a 24 24 0 0 1 24 24 v 4 a 32 32 0 0 0 64 0 v -4 a 24 24 0 0 1 24 -24" stroke="pink" fill="transparent" stroke-width="16" stroke-linecap="butt" />
            <path d="M 0 48 a 16 16 0 0 1 16 16 v 4 a 40 40 0 0 0 80 0 v -4 a 16 16 0 0 1 16 -16" stroke="maroon" fill="transparent" stroke-width="16" stroke-linecap="butt" />
        </pattern>
    </defs>

    <!-- <rect x="0" y="58" width="100%" height="800" fill="orange" /> -->
    <rect x="0" y="0" width="100%" height="128" fill="url(#wave)" />
</svg>
